<svg width="30" height="31" viewBox="0 0 30 31" fill="none" xmlns="http://www.w3.org/2000/svg">
<path d="M4.02373 26.4762C4.38936 26.8419 4.98373 26.8419 5.34936 26.4762L24.375 7.45062V14.5625C24.375 15.08 24.795 15.5 25.3125 15.5C25.83 15.5 26.25 15.08 26.25 14.5625V5.1875C26.25 5.06563 26.2256 4.94375 26.1769 4.82938C26.0812 4.60063 25.8994 4.41688 25.6706 4.32313C25.5562 4.27438 25.4344 4.25 25.3125 4.25H15.9375C15.42 4.25 15 4.67 15 5.1875C15 5.705 15.42 6.125 15.9375 6.125H23.0494L4.02373 25.1488C3.65811 25.5163 3.65811 26.1087 4.02373 26.4762Z" fill="white"/>
</svg>
