<svg width="200" height="43" viewBox="0 0 200 43" fill="none" xmlns="http://www.w3.org/2000/svg">
<path d="M16.5745 0.287109C7.73804 0.287109 0.574463 7.62366 0.574463 16.6734C0.574463 25.7235 7.73804 33.06 16.5745 33.06V42.2871C16.5745 42.2871 32.5745 36.4532 32.5745 16.6734C32.5745 7.62366 25.4109 0.287109 16.5745 0.287109ZM11.3186 16.6731C11.3186 13.7004 13.6718 11.2903 16.5745 11.2903C19.4771 11.2903 21.8304 13.7004 21.8304 16.6731C21.8304 19.6461 19.4771 22.0559 16.5745 22.0559C13.6715 22.0562 11.3186 19.6464 11.3186 16.6731Z" fill="white"/>
<path d="M47.5745 7.36351C49.2807 7.43991 50.6049 7.47811 51.5472 7.47811H52.9605C53.368 7.47811 53.8773 7.46537 54.4885 7.43991C54.9978 7.41444 55.6472 7.40171 56.4367 7.40171C57.2261 7.37624 58.1684 7.33804 59.2634 7.28711C58.7541 7.64364 58.3466 7.98743 58.041 8.31849C57.7354 8.64955 57.4935 8.94241 57.3153 9.19707C57.1115 9.50266 56.9715 9.78279 56.8951 10.0375C56.7168 10.6996 56.6404 11.6036 56.6659 12.7496C56.7168 13.8701 56.8314 15.0925 57.0097 16.4167C57.1879 17.7155 57.4044 19.0397 57.659 20.3894C57.9137 21.7391 58.1684 22.9615 58.423 24.0566C58.7032 25.1516 58.9451 26.0556 59.1488 26.7687C59.378 27.4563 59.5435 27.8001 59.6454 27.8001C59.7473 27.8001 59.9383 27.4308 60.2184 26.6923C60.524 25.9538 60.8678 25.0243 61.2498 23.9038C61.6318 22.7578 62.0265 21.5227 62.4339 20.1984C62.8414 18.8487 63.2107 17.5754 63.5417 16.3785C63.8982 15.1561 64.1911 14.112 64.4203 13.2462C64.6495 12.3549 64.7641 11.8073 64.7641 11.6036C64.7386 11.3235 64.6495 11.0306 64.4967 10.725C64.3694 10.4449 64.1402 10.1266 63.8091 9.77006C63.5035 9.38806 63.0706 8.95514 62.5103 8.47128C63.2998 8.44582 63.9746 8.42035 64.5349 8.39489C65.1206 8.36942 65.6172 8.35669 66.0247 8.35669H73.3207C72.6841 8.78961 72.1365 9.2098 71.6781 9.61726C71.2452 10.0247 70.8887 10.4067 70.6086 10.7632C70.2775 11.1707 69.9974 11.5527 69.7682 11.9092C69.5135 12.444 69.0933 13.6027 68.5076 15.3853C68.253 16.1493 67.9601 17.0788 67.629 18.1739C67.298 19.2689 66.9032 20.5804 66.4449 22.1084C65.9865 23.6364 65.4771 25.4063 64.9169 27.4181C64.3566 29.4044 63.72 31.6709 63.0069 34.2175L57.6972 34.9051C57.0606 32.9188 56.5003 31.1107 56.0165 29.4808C55.5581 27.8255 55.1506 26.4122 54.7941 25.2407C54.3867 23.8656 54.0429 22.6304 53.7627 21.5354C53.3807 20.2112 53.0497 18.8742 52.7696 17.5245C52.5149 16.1493 52.2857 14.9142 52.082 13.8192C51.9037 12.6987 51.7382 11.7691 51.5854 11.0306C51.4326 10.2921 51.2671 9.85919 51.0888 9.73186C50.936 9.60453 50.7068 9.439 50.4012 9.23527C50.1211 9.057 49.7645 8.82781 49.3316 8.54768C48.8732 8.24209 48.2875 7.84736 47.5745 7.36351Z" fill="white"/>
<path d="M70.5704 17.7155L77.599 17.7919C77.1916 19.3453 76.886 20.6696 76.6822 21.7646C76.504 22.8596 76.3894 23.7764 76.3384 24.5149C76.2366 25.3553 76.2111 26.0684 76.262 26.6541C76.3384 27.1889 76.4658 27.7619 76.644 28.3731C76.7968 28.8824 77.026 29.4681 77.3316 30.1302C77.6372 30.7923 78.0447 31.4545 78.554 32.1166C78.2484 32.0147 77.9173 31.9383 77.5608 31.8874C77.2043 31.8365 76.8732 31.7983 76.5676 31.7728C76.2111 31.7473 75.8546 31.7473 75.4981 31.7728C75.1415 31.7983 74.7468 31.8365 74.3139 31.8874C73.9574 31.9383 73.5244 32.002 73.0151 32.0784C72.5058 32.1548 71.971 32.2566 71.4108 32.384C71.7927 31.238 72.0856 30.2448 72.2893 29.4044C72.5185 28.5641 72.6841 27.8637 72.7859 27.3035C72.8878 26.6414 72.9515 26.1066 72.9769 25.6991C72.9769 25.1898 72.9769 24.6168 72.9769 23.9802C72.9769 23.318 72.9769 22.6814 72.9769 22.0702C72.9769 21.459 72.9642 20.9242 72.9387 20.4658C72.9133 19.982 72.8623 19.6764 72.7859 19.549L72.4039 19.1671C72.2511 19.0397 72.0219 18.8615 71.7163 18.6323C71.4362 18.3776 71.0542 18.072 70.5704 17.7155ZM73.2825 11.8328C73.8173 11.5527 74.3521 11.4763 74.8869 11.6036C75.4471 11.7309 75.8801 11.9729 76.1856 12.3294C76.4912 12.6859 76.5931 13.1061 76.4912 13.59C76.4148 14.0738 76.0074 14.545 75.2689 15.0033C74.5304 15.4363 73.881 15.5891 73.3207 15.4617C72.7605 15.3344 72.3657 15.067 72.1365 14.6596C71.9073 14.2521 71.8691 13.781 72.0219 13.2462C72.1747 12.6859 72.5949 12.2148 73.2825 11.8328Z" fill="white"/>
<path d="M96.775 12.9788C96.5458 13.539 96.3421 14.0484 96.1638 14.5068C96.011 14.9651 95.871 15.3726 95.7436 15.7291C95.6163 16.1366 95.5017 16.4931 95.3998 16.7987C95.298 17.1552 95.1834 17.5627 95.056 18.0211C94.9287 18.4285 94.7632 18.9379 94.5595 19.549C94.3812 20.1348 94.1647 20.8351 93.9101 21.65C93.7063 20.4276 93.3371 19.4599 92.8023 18.7469C92.2675 18.0083 91.72 17.4354 91.1597 17.0279C90.4976 16.5695 89.7846 16.2385 89.0206 16.0347C87.6454 15.8055 86.6522 15.831 86.041 16.1111C85.4299 16.3912 85.0224 16.7478 84.8187 17.1807C84.7168 17.359 84.6022 17.5882 84.4749 17.8683C84.373 18.1229 84.2839 18.3903 84.2075 18.6705C84.1565 18.9506 84.1438 19.2307 84.1693 19.5108C84.1947 19.791 84.3093 20.0202 84.5131 20.1984C84.6404 20.3258 84.9715 20.504 85.5063 20.7332C86.041 20.937 86.6777 21.1789 87.4162 21.459C88.1802 21.7137 88.9824 21.9938 89.8228 22.2994C90.6886 22.605 91.5035 22.9106 92.2675 23.2162C93.0315 23.5218 93.6936 23.8274 94.2539 24.1329C94.8141 24.4385 95.1834 24.7187 95.3616 24.9733C95.5144 25.228 95.68 25.5718 95.8582 26.0047C96.062 26.4122 96.202 26.8706 96.2784 27.3799C96.3803 27.8637 96.4058 28.3731 96.3548 28.9078C96.3294 29.4172 96.1893 29.9265 95.9346 30.4358C95.68 30.9451 95.2725 31.4163 94.7123 31.8492C94.1775 32.2821 93.4517 32.6386 92.5349 32.9188C91.4653 33.2498 90.4339 33.339 89.4408 33.1862C88.4476 33.0334 87.5308 32.8042 86.6904 32.4986C85.8755 32.193 85.1625 31.9001 84.5513 31.62C83.9401 31.3144 83.5072 31.1871 83.2525 31.238C82.9724 31.2889 82.654 31.429 82.2975 31.6582C81.941 31.8874 81.5972 32.1293 81.2661 32.384C80.9605 32.6132 80.6932 32.8296 80.464 33.0334C80.2348 33.2116 80.1202 33.2753 80.1202 33.2244C80.1202 33.1734 80.1584 33.0206 80.2348 32.766C80.3366 32.5113 80.4385 32.2057 80.5404 31.8492C80.6677 31.4672 80.7823 31.0597 80.8842 30.6268C81.0115 30.1684 81.1006 29.7355 81.1515 29.328C81.2025 28.997 81.2661 28.5895 81.3425 28.1057C81.3935 27.6727 81.4571 27.1507 81.5335 26.5395C81.6354 25.9028 81.75 25.1389 81.8773 24.2475C82.0047 24.9097 82.1829 25.4827 82.4121 25.9665C82.6668 26.4504 82.9087 26.8706 83.1379 27.2271C83.418 27.6345 83.6854 27.9783 83.9401 28.2585C84.3221 28.615 84.7677 28.946 85.2771 29.2516C85.8118 29.5572 86.3466 29.8246 86.8814 30.0538C87.4162 30.2576 87.9255 30.3849 88.4094 30.4358C88.8932 30.4867 89.3007 30.4358 89.6318 30.283C89.9628 30.1302 90.243 29.8501 90.4721 29.4426C90.7268 29.0352 90.9051 28.5895 91.0069 28.1057C91.1088 27.6218 91.147 27.1634 91.1215 26.7305C91.0961 26.2721 90.9815 25.9028 90.7777 25.6227C90.6249 25.4445 90.2684 25.2153 89.7082 24.9351C89.1734 24.655 88.524 24.3494 87.76 24.0184C87.0215 23.6873 86.232 23.3435 85.3917 22.987C84.5767 22.6304 83.8 22.2739 83.0615 21.9174C82.3485 21.5354 81.75 21.1789 81.2661 20.8478C80.8078 20.4913 80.5531 20.173 80.5022 19.8928C80.4512 19.4854 80.413 19.0397 80.3876 18.5559C80.3621 18.0465 80.3876 17.55 80.464 17.0661C80.5658 16.5568 80.7441 16.0729 80.9987 15.6145C81.2789 15.1561 81.6863 14.7741 82.2211 14.4686C82.5776 14.2648 83.0488 14.112 83.6345 14.0102C84.2202 13.9083 84.8696 13.8574 85.5826 13.8574C86.2957 13.8319 87.0342 13.8574 87.7982 13.9338C88.5622 13.9847 89.288 14.0611 89.9756 14.163C90.6886 14.2394 91.3253 14.3412 91.8855 14.4686C92.4712 14.5959 92.9169 14.7105 93.2225 14.8123C93.579 14.9397 93.961 14.9524 94.3685 14.8505C94.725 14.7741 95.107 14.6086 95.5144 14.354C95.9219 14.0993 96.3421 13.6409 96.775 12.9788Z" fill="white"/>
<path d="M98.1502 17.7155L105.179 17.7919C104.771 19.3453 104.466 20.6696 104.262 21.7646C104.084 22.8596 103.969 23.7764 103.918 24.5149C103.816 25.3553 103.791 26.0684 103.842 26.6541C103.918 27.1889 104.046 27.7619 104.224 28.3731C104.377 28.8824 104.606 29.4681 104.911 30.1302C105.217 30.7923 105.624 31.4545 106.134 32.1166C105.828 32.0147 105.497 31.9383 105.141 31.8874C104.784 31.8365 104.453 31.7983 104.147 31.7728C103.791 31.7473 103.434 31.7473 103.078 31.7728C102.721 31.7983 102.327 31.8365 101.894 31.8874C101.537 31.9383 101.104 32.002 100.595 32.0784C100.086 32.1548 99.5508 32.2566 98.9906 32.384C99.3726 31.238 99.6654 30.2448 99.8691 29.4044C100.098 28.5641 100.264 27.8637 100.366 27.3035C100.468 26.6414 100.531 26.1066 100.557 25.6991C100.557 25.1898 100.557 24.6168 100.557 23.9802C100.557 23.318 100.557 22.6814 100.557 22.0702C100.557 21.459 100.544 20.9242 100.519 20.4658C100.493 19.982 100.442 19.6764 100.366 19.549L99.9837 19.1671C99.8309 19.0397 99.6017 18.8615 99.2962 18.6323C99.016 18.3776 98.634 18.072 98.1502 17.7155ZM100.862 11.8328C101.397 11.5527 101.932 11.4763 102.467 11.6036C103.027 11.7309 103.46 11.9729 103.765 12.3294C104.071 12.6859 104.173 13.1061 104.071 13.59C103.995 14.0738 103.587 14.545 102.849 15.0033C102.11 15.4363 101.461 15.5891 100.901 15.4617C100.34 15.3344 99.9455 15.067 99.7163 14.6596C99.4872 14.2521 99.449 13.781 99.6017 13.2462C99.7545 12.6859 100.175 12.2148 100.862 11.8328Z" fill="white"/>
<path d="M117.746 17.6773C118.408 17.6773 119.096 17.8046 119.809 18.0593C120.522 18.2885 121.21 18.5941 121.872 18.9761C122.534 19.3326 123.132 19.7273 123.667 20.1602C124.227 20.5677 124.686 20.9624 125.042 21.3444C125.679 22.032 126.112 22.9615 126.341 24.1329C126.596 25.2789 126.647 26.4631 126.494 27.6855C126.341 28.8824 125.985 30.0156 125.424 31.0852C124.864 32.1548 124.087 32.9442 123.094 33.4536C122.381 33.8101 121.681 34.0902 120.993 34.2939C120.306 34.4977 119.644 34.6505 119.007 34.7523C118.37 34.8542 117.772 34.9051 117.212 34.9051C116.651 34.9051 116.167 34.8924 115.76 34.8669C114.996 34.816 114.194 34.5486 113.353 34.0647C112.539 33.5809 111.762 32.9824 111.023 32.2694C110.31 31.5563 109.699 30.7796 109.19 29.9392C108.68 29.0734 108.375 28.2585 108.273 27.4945C108.12 26.4504 108.095 25.3553 108.197 24.2093C108.298 23.0634 108.668 22.0065 109.304 21.0388C109.966 20.0711 110.96 19.2689 112.284 18.6323C113.634 17.9956 115.454 17.6773 117.746 17.6773ZM116.486 32.4986C116.766 32.5495 117.148 32.4858 117.632 32.3076C118.116 32.1038 118.587 31.7855 119.045 31.3526C119.529 30.9197 119.949 30.3721 120.306 29.71C120.688 29.0224 120.917 28.1948 120.993 27.2271C121.07 26.2848 121.07 25.419 120.993 24.6295C120.942 23.8401 120.828 23.1525 120.649 22.5668C120.471 21.9556 120.268 21.459 120.038 21.077C119.809 20.695 119.567 20.4276 119.313 20.2748C118.88 20.0456 118.358 19.8674 117.746 19.74C117.135 19.5872 116.613 19.6127 116.18 19.8164C115.976 19.9183 115.722 20.1348 115.416 20.4658C115.111 20.7969 114.805 21.2171 114.499 21.7264C114.194 22.2103 113.914 22.7705 113.659 23.4072C113.43 24.0438 113.264 24.7059 113.162 25.3935C113.061 26.0811 113.035 26.8196 113.086 27.6091C113.162 28.3985 113.328 29.1498 113.583 29.8628C113.837 30.5504 114.194 31.1489 114.652 31.6582C115.136 32.142 115.747 32.4222 116.486 32.4986Z" fill="white"/>
<path d="M124.049 7.36351C125.755 7.43991 127.08 7.47811 128.022 7.47811H129.435C129.843 7.47811 130.352 7.46537 130.963 7.43991C131.473 7.41444 132.122 7.40171 132.911 7.40171C133.701 7.37624 134.643 7.33804 135.738 7.28711C135.229 7.64364 134.821 7.98743 134.516 8.31849C134.21 8.64955 133.968 8.94241 133.79 9.19707C133.586 9.50266 133.446 9.78279 133.37 10.0375C133.192 10.6996 133.115 11.6036 133.141 12.7496C133.192 13.8701 133.306 15.0925 133.484 16.4167C133.663 17.7155 133.879 19.0397 134.134 20.3894C134.388 21.7391 134.643 22.9615 134.898 24.0566C135.178 25.1516 135.42 26.0556 135.624 26.7687C135.853 27.4563 136.018 27.8001 136.12 27.8001C136.222 27.8001 136.413 27.4308 136.693 26.6923C136.999 25.9538 137.343 25.0243 137.725 23.9038C138.107 22.7578 138.501 21.5227 138.909 20.1984C139.316 18.8487 139.685 17.5754 140.016 16.3785C140.373 15.1561 140.666 14.112 140.895 13.2462C141.124 12.3549 141.239 11.8073 141.239 11.6036C141.213 11.3235 141.124 11.0306 140.971 10.725C140.844 10.4449 140.615 10.1266 140.284 9.77006C139.978 9.38806 139.545 8.95514 138.985 8.47128C139.775 8.44582 140.449 8.42035 141.01 8.39489C141.595 8.36942 142.092 8.35669 142.499 8.35669H149.795C149.159 8.78961 148.611 9.2098 148.153 9.61726C147.72 10.0247 147.363 10.4067 147.083 10.7632C146.752 11.1707 146.472 11.5527 146.243 11.9092C145.988 12.444 145.568 13.6027 144.982 15.3853C144.728 16.1493 144.435 17.0788 144.104 18.1739C143.773 19.2689 143.378 20.5804 142.92 22.1084C142.461 23.6364 141.952 25.4063 141.392 27.4181C140.831 29.4044 140.195 31.6709 139.482 34.2175L134.172 34.9051C133.535 32.9188 132.975 31.1107 132.491 29.4808C132.033 27.8255 131.625 26.4122 131.269 25.2407C130.861 23.8656 130.518 22.6304 130.237 21.5354C129.855 20.2112 129.524 18.8742 129.244 17.5245C128.99 16.1493 128.76 14.9142 128.557 13.8192C128.378 12.6987 128.213 11.7691 128.06 11.0306C127.907 10.2921 127.742 9.85919 127.564 9.73186C127.411 9.60453 127.182 9.439 126.876 9.23527C126.596 9.057 126.239 8.82781 125.806 8.54768C125.348 8.24209 124.762 7.84736 124.049 7.36351Z" fill="white"/>
<path d="M147.045 17.7155L154.074 17.7919C153.666 19.3453 153.361 20.6696 153.157 21.7646C152.979 22.8596 152.864 23.7764 152.813 24.5149C152.711 25.3553 152.686 26.0684 152.737 26.6541C152.813 27.1889 152.941 27.7619 153.119 28.3731C153.272 28.8824 153.501 29.4681 153.806 30.1302C154.112 30.7923 154.519 31.4545 155.029 32.1166C154.723 32.0147 154.392 31.9383 154.036 31.8874C153.679 31.8365 153.348 31.7983 153.042 31.7728C152.686 31.7473 152.329 31.7473 151.973 31.7728C151.616 31.7983 151.222 31.8365 150.789 31.8874C150.432 31.9383 149.999 32.002 149.49 32.0784C148.981 32.1548 148.446 32.2566 147.886 32.384C148.268 31.238 148.56 30.2448 148.764 29.4044C148.993 28.5641 149.159 27.8637 149.261 27.3035C149.363 26.6414 149.426 26.1066 149.452 25.6991C149.452 25.1898 149.452 24.6168 149.452 23.9802C149.452 23.318 149.452 22.6814 149.452 22.0702C149.452 21.459 149.439 20.9242 149.413 20.4658C149.388 19.982 149.337 19.6764 149.261 19.549L148.879 19.1671C148.726 19.0397 148.497 18.8615 148.191 18.6323C147.911 18.3776 147.529 18.072 147.045 17.7155ZM149.757 11.8328C150.292 11.5527 150.827 11.4763 151.362 11.6036C151.922 11.7309 152.355 11.9729 152.66 12.3294C152.966 12.6859 153.068 13.1061 152.966 13.59C152.89 14.0738 152.482 14.545 151.744 15.0033C151.005 15.4363 150.356 15.5891 149.795 15.4617C149.235 15.3344 148.84 15.067 148.611 14.6596C148.382 14.2521 148.344 13.781 148.497 13.2462C148.649 12.6859 149.07 12.2148 149.757 11.8328Z" fill="white"/>
<path d="M156.404 7.97469C156.99 8.12749 157.524 8.24209 158.008 8.31849C158.518 8.36942 158.951 8.40762 159.307 8.43308C159.74 8.45855 160.135 8.47128 160.491 8.47128C160.848 8.47128 161.293 8.44582 161.828 8.39489C162.77 8.31849 164.107 8.12749 165.839 7.8219C165.559 8.02563 165.292 8.22936 165.037 8.43308C164.808 8.61135 164.604 8.78961 164.426 8.96787L163.853 9.54086C163.522 9.99925 163.191 10.776 162.86 11.871C162.579 12.8133 162.274 14.1375 161.943 15.8437C161.637 17.55 161.357 19.8164 161.102 22.6432C162.35 21.4208 163.522 20.504 164.617 19.8928C165.737 19.2562 166.718 18.7978 167.558 18.5177C168.551 18.2121 169.455 18.0465 170.27 18.0211C171.314 18.0975 172.218 18.3139 172.982 18.6705C173.772 19.0015 174.434 19.409 174.969 19.8928C175.529 20.3512 175.975 20.8351 176.306 21.3444C176.662 21.8283 176.93 22.2612 177.108 22.6432C177.21 22.8978 177.286 23.369 177.337 24.0566C177.413 24.7187 177.426 25.4827 177.375 26.3485C177.324 27.2143 177.184 28.1311 176.955 29.0988C176.751 30.0411 176.408 30.9197 175.924 31.7346C175.465 32.524 174.854 33.1862 174.09 33.7209C173.352 34.2557 172.422 34.5486 171.302 34.5995C170.003 34.5995 168.742 34.4467 167.52 34.1411C166.476 33.8865 165.368 33.4408 164.197 32.8042C163.051 32.142 162.07 31.1998 161.255 29.9774C161.255 30.283 161.255 30.5886 161.255 30.8942C161.255 31.1743 161.268 31.4163 161.293 31.62C161.319 31.9001 161.344 32.142 161.37 32.3458C161.395 32.575 161.459 32.8169 161.561 33.0716C161.637 33.2753 161.752 33.5299 161.905 33.8355C162.083 34.1157 162.312 34.3958 162.592 34.6759C162.312 34.6505 162.032 34.6377 161.752 34.6377C161.472 34.6123 161.192 34.6123 160.911 34.6377C160.606 34.6632 160.3 34.6887 159.995 34.7141C159.689 34.7396 159.371 34.7778 159.04 34.8287C158.76 34.8797 158.428 34.9433 158.047 35.0197C157.665 35.0961 157.27 35.1852 156.862 35.2871C156.939 35.0579 157.002 34.7269 157.053 34.2939C157.104 33.8355 157.155 33.339 157.206 32.8042C157.283 32.2439 157.333 31.6582 157.359 31.047C157.41 30.4358 157.461 29.8246 157.512 29.2134C157.614 27.8128 157.703 26.2848 157.779 24.6295C157.855 22.0575 157.868 19.6636 157.817 17.4481C157.792 16.5058 157.741 15.5509 157.665 14.5832C157.614 13.6154 157.537 12.7114 157.435 11.871C157.333 11.0052 157.193 10.2412 157.015 9.57906C156.862 8.89148 156.659 8.35669 156.404 7.97469ZM161.37 26.5777C161.777 27.3162 162.21 27.9529 162.669 28.4877C163.127 28.997 163.585 29.4299 164.044 29.7864C164.502 30.143 164.948 30.4231 165.381 30.6268C165.839 30.8305 166.272 30.9833 166.68 31.0852C167.622 31.3399 168.551 31.3653 169.468 31.1616C170.385 30.9069 171.098 30.3976 171.607 29.6336C172.117 28.8696 172.511 28.0038 172.791 27.0361C172.919 26.5777 172.995 25.992 173.021 25.2789C173.072 24.5659 172.995 23.8783 172.791 23.2162C172.613 22.5286 172.282 21.9301 171.798 21.4208C171.314 20.886 170.614 20.5677 169.697 20.4658C169.061 20.4658 168.322 20.6441 167.482 21.0006C166.743 21.3062 165.865 21.8155 164.846 22.5286C163.827 23.2162 162.669 24.2475 161.37 25.6227V26.5777Z" fill="white"/>
<path d="M189.102 28.6405C189.815 28.6405 190.478 28.5641 191.089 28.4113C191.598 28.2839 192.082 28.0802 192.54 27.8001C193.024 27.4945 193.343 27.0488 193.495 26.4631C194.005 26.565 194.438 26.6541 194.794 26.7305C195.151 26.7814 195.456 26.8324 195.711 26.8833C195.991 26.9597 196.233 27.0106 196.437 27.0361C196.64 27.087 196.882 27.138 197.162 27.1889C197.417 27.2398 197.723 27.3035 198.079 27.3799C198.461 27.4308 198.907 27.5072 199.416 27.6091C199.034 27.5581 198.639 27.5963 198.232 27.7237C197.85 27.851 197.481 27.9911 197.124 28.1439C196.717 28.3221 196.335 28.5386 195.978 28.7932C195.749 28.946 195.482 29.1752 195.176 29.4808C194.896 29.7864 194.489 30.0793 193.954 30.3594C193.419 30.6395 192.706 30.8815 191.815 31.0852C190.949 31.2635 189.828 31.3271 188.453 31.2762C186.798 31.2253 185.41 30.9324 184.289 30.3976C183.169 29.8374 182.265 29.1625 181.577 28.3731C180.89 27.5581 180.393 26.6796 180.087 25.7373C179.782 24.7951 179.616 23.9165 179.591 23.1016C179.565 22.2867 179.807 21.4335 180.317 20.5422C180.826 19.6509 181.539 18.836 182.456 18.0975C183.398 17.359 184.531 16.7605 185.855 16.3021C187.18 15.8183 188.631 15.5763 190.21 15.5763C191.127 15.5763 191.967 15.6909 192.731 15.9201C193.521 16.1239 194.234 16.404 194.871 16.7605C195.533 17.117 196.106 17.5245 196.589 17.9829C197.073 18.4158 197.481 18.8615 197.812 19.3199C198.143 19.8037 198.423 20.313 198.652 20.8478C198.856 21.3062 199.021 21.8283 199.149 22.414C199.276 22.9997 199.314 23.5982 199.263 24.2093C197.328 24.2603 195.762 24.2985 194.565 24.3239C193.393 24.3494 192.477 24.3621 191.815 24.3621H188.797C188.338 24.3621 187.74 24.3749 187.001 24.4003C186.263 24.4258 185.359 24.464 184.289 24.5149C184.417 25.5336 184.735 26.323 185.244 26.8833C185.779 27.4181 186.339 27.8255 186.925 28.1057C187.587 28.4113 188.313 28.5895 189.102 28.6405ZM185.665 21.7646C186.479 21.8155 187.154 21.8537 187.689 21.8792C188.249 21.9047 188.708 21.9301 189.064 21.9556C189.446 21.9811 189.752 21.9938 189.981 21.9938H190.936C191.573 21.9938 192.757 21.9556 194.489 21.8792C194.412 20.7587 194.17 19.9056 193.763 19.3199C193.381 18.7341 192.973 18.3012 192.54 18.0211C192.031 17.7155 191.471 17.5372 190.86 17.4863C189.204 17.5118 187.969 17.8555 187.154 18.5177C186.365 19.1798 185.868 20.2621 185.665 21.7646Z" fill="white"/>
</svg>
