<svg width="100" height="112" viewBox="0 0 100 112" fill="none" xmlns="http://www.w3.org/2000/svg">
<path fill-rule="evenodd" clip-rule="evenodd" d="M63.8448 31.5847C92.775 -1.998 121.008 47.6765 77.7868 55.7223C121.008 64.118 92.4264 113.443 63.8448 79.8595C78.484 121.838 21.6695 121.488 36.309 79.8595C7.37877 113.443 -20.8542 64.118 22.3667 55.7223C-21.2028 47.6765 7.37877 -1.64818 36.309 31.5847C21.321 -10.0438 78.484 -10.0438 63.8448 31.5847ZM49.9024 49.4256C53.3882 49.4256 56.525 52.2241 56.525 55.7223C56.525 59.2204 53.3882 62.369 49.9024 62.369C46.417 62.369 43.6283 59.2204 43.6283 55.7223C43.6283 52.2241 46.417 49.4256 49.9024 49.4256Z" fill="#F2C94C"/>
</svg>
