<svg width="20" height="21" viewBox="0 0 20 21" fill="none" xmlns="http://www.w3.org/2000/svg">
<path fill-rule="evenodd" clip-rule="evenodd" d="M4.58554 4.1797L4.01276 4.76057C3.70581 5.06146 3.5021 5.45194 3.43107 5.8759C3.36024 6.29866 3.42491 6.73294 3.61578 7.11666C5.76546 11.2825 9.16024 14.6746 13.3278 16.8208C13.7115 17.0118 14.1457 17.077 14.5687 17.0072C14.9926 16.9373 15.3836 16.7354 15.686 16.4301C15.6859 16.4302 15.6861 16.43 15.686 16.4301L16.259 15.8491C16.3682 15.7411 16.455 15.6128 16.5141 15.4713C16.5732 15.3297 16.6037 15.1776 16.6037 15.024C16.6037 14.8704 16.5732 14.7184 16.5141 14.5768C16.455 14.4353 16.3682 14.3069 16.259 14.1989L16.2564 14.1963L15.0058 12.9458C14.8978 12.8364 14.7694 12.7497 14.6278 12.6906C14.4862 12.6314 14.3343 12.601 14.1806 12.601C14.027 12.601 13.875 12.6314 13.7335 12.6906C13.592 12.7497 13.4634 12.8364 13.3555 12.9457L13.353 12.9483L12.289 14.0123C12.1763 14.125 12.0236 14.1882 11.8644 14.1881C11.7094 14.188 11.5606 14.1279 11.449 14.0207C10.49 13.3137 9.58576 12.5351 8.744 11.6918C7.8875 10.833 7.09526 9.91216 6.37418 8.93672C6.19762 8.69792 6.22236 8.36585 6.43238 8.15582L7.49511 7.09304C7.49493 7.09323 7.4953 7.09286 7.49511 7.09304C7.71377 6.87276 7.83702 6.57445 7.83702 6.26406C7.83702 5.95366 7.71432 5.6559 7.49565 5.43562C7.49547 5.43544 7.49582 5.4358 7.49565 5.43562L6.24169 4.18161C6.24149 4.18142 6.2413 4.18122 6.2411 4.18102C6.0208 3.96237 5.72301 3.83965 5.41266 3.83965C5.10294 3.83965 4.80571 3.96187 4.58554 4.1797ZM11.812 12.7922L12.5018 12.1023C12.5023 12.1018 12.5028 12.1014 12.5033 12.1009C12.7224 11.8795 12.9833 11.7034 13.271 11.5833C13.5593 11.4629 13.8685 11.401 14.1806 11.401C14.4929 11.401 14.8021 11.4629 15.0904 11.5833C15.378 11.7034 15.6389 11.8794 15.858 12.1008C15.8585 12.1014 15.859 12.1018 15.8595 12.1023L17.1024 13.3453L17.1038 13.3466C17.3252 13.5658 17.5011 13.8265 17.6213 14.1142C17.7418 14.4025 17.8037 14.7118 17.8037 15.024C17.8037 15.3362 17.7418 15.6456 17.6213 15.9338C17.5014 16.2209 17.326 16.481 17.1053 16.6999L16.539 17.2742C16.0587 17.7592 15.4374 18.0802 14.7639 18.1912C14.0905 18.3023 13.3991 18.1979 12.7885 17.8928L12.782 17.8895C8.3897 15.6285 4.81206 12.0536 2.54743 7.66314L2.5439 7.65629C2.2383 7.04468 2.13459 6.3519 2.24757 5.67762C2.36024 5.0051 2.68273 4.38542 3.16886 3.90731L3.73766 3.33048C4.1828 2.88804 4.78497 2.63965 5.41266 2.63965C6.04034 2.63965 6.64249 2.88806 7.08763 3.3305L7.08894 3.3318L8.34622 4.58914C8.78864 5.0343 9.03704 5.6364 9.03704 6.26406C9.03704 6.89172 8.78864 7.49383 8.34622 7.93899L8.34494 7.94027L7.65038 8.63488C8.2511 9.41112 8.90008 10.149 9.59352 10.8442C10.2896 11.5416 11.0307 12.1923 11.812 12.7922Z" fill="white"/>
<path fill-rule="evenodd" clip-rule="evenodd" d="M17.6241 2.81148C17.8584 3.04579 17.8584 3.42569 17.6241 3.66L13.0962 8.188C12.8618 8.42232 12.4819 8.42232 12.2476 8.18801C12.0133 7.95369 12.0133 7.5738 12.2476 7.33948L16.7756 2.81148C17.0099 2.57716 17.3898 2.57716 17.6241 2.81148Z" fill="white"/>
<path fill-rule="evenodd" clip-rule="evenodd" d="M12.6718 3.76367C13.0033 3.76367 13.2718 4.0323 13.2718 4.36367V7.16367H16.0718C16.4033 7.16367 16.6718 7.4323 16.6718 7.76367C16.6718 8.09505 16.4033 8.36367 16.0718 8.36367H12.6718C12.3405 8.36367 12.0718 8.09505 12.0718 7.76367V4.36367C12.0718 4.0323 12.3405 3.76367 12.6718 3.76367Z" fill="white"/>
</svg>
