<svg width="20" height="21" viewBox="0 0 20 21" fill="none" xmlns="http://www.w3.org/2000/svg">
<path d="M16.6667 16.9587H3.33334C2.72623 16.9565 2.14461 16.7143 1.71531 16.285C1.28602 15.8557 1.04387 15.2741 1.04167 14.667V6.33366C1.04387 5.72655 1.28602 5.14493 1.71531 4.71563C2.14461 4.28634 2.72623 4.04419 3.33334 4.04199H16.6667C17.2738 4.04419 17.8554 4.28634 18.2847 4.71563C18.714 5.14493 18.9561 5.72655 18.9583 6.33366V14.667C18.9561 15.2741 18.714 15.8557 18.2847 16.285C17.8554 16.7143 17.2738 16.9565 16.6667 16.9587ZM3.33334 5.29199C3.05707 5.29199 2.79212 5.40174 2.59677 5.59709C2.40142 5.79244 2.29167 6.05739 2.29167 6.33366V14.667C2.29167 14.9433 2.40142 15.2082 2.59677 15.4036C2.79212 15.5989 3.05707 15.7087 3.33334 15.7087H16.6667C16.9429 15.7087 17.2079 15.5989 17.4032 15.4036C17.5986 15.2082 17.7083 14.9433 17.7083 14.667V6.33366C17.7083 6.05739 17.5986 5.79244 17.4032 5.59709C17.2079 5.40174 16.9429 5.29199 16.6667 5.29199H3.33334Z" fill="white"/>
<path d="M10 11.625C9.5164 11.625 9.04163 11.4955 8.625 11.25L1.35 6.92498C1.21407 6.84026 1.1153 6.7072 1.07355 6.55258C1.0318 6.39795 1.05018 6.23326 1.125 6.09164C1.2082 5.95398 1.34191 5.85427 1.49759 5.81379C1.65327 5.77331 1.81861 5.79527 1.95833 5.87498L9.24166 10.1916C9.46255 10.3264 9.71627 10.3976 9.975 10.3976C10.2337 10.3976 10.4874 10.3264 10.7083 10.1916L17.9917 5.87498C18.1314 5.79527 18.2967 5.77331 18.4524 5.81379C18.6081 5.85427 18.7418 5.95398 18.825 6.09164C18.8998 6.23326 18.9182 6.39795 18.8764 6.55258C18.8347 6.7072 18.7359 6.84026 18.6 6.92498L11.375 11.25C10.9584 11.4955 10.4836 11.625 10 11.625Z" fill="white"/>
</svg>
