<svg width="172" height="30" viewBox="0 0 172 30" fill="none" xmlns="http://www.w3.org/2000/svg">
<path d="M24.195 7.58908C24.9352 6.84741 25.3927 5.82396 25.3927 4.69322C25.3927 2.4287 23.5567 0.592773 21.2922 0.592773C19.8605 0.592773 18.6018 1.32745 17.8684 2.43965C17.6735 2.63479 1.35045 22.7535 1.19786 22.9848C0.458012 23.7264 0.000244141 24.7502 0.000244141 25.8803C0.000244141 28.1448 1.83617 29.9808 4.10069 29.9808C5.53236 29.9808 6.79107 29.2461 7.52453 28.1342C7.71937 27.939 24.0425 7.82009 24.195 7.58908Z" fill="white"/>
<path d="M33.6403 17.1351C34.3819 16.3931 34.8409 15.3681 34.8409 14.2362C34.8409 11.9714 33.005 10.1357 30.7405 10.1357C29.3082 10.1357 28.0492 10.871 27.3157 11.9841C27.1194 12.1805 18.5458 22.7487 18.3923 22.9815C17.6506 23.7235 17.1917 24.7484 17.1917 25.8804C17.1917 28.1449 19.0276 29.9808 21.2921 29.9808C22.7244 29.9808 23.9834 29.2452 24.7169 28.1327C24.9132 27.9361 33.4868 17.3679 33.6403 17.1351Z" fill="white"/>
<path d="M38.4836 8.79367C40.7482 8.79367 42.5841 6.95784 42.5841 4.69322C42.5841 2.42861 40.7482 0.592773 38.4836 0.592773C36.219 0.592773 34.3832 2.42861 34.3832 4.69322C34.3832 6.95784 36.219 8.79367 38.4836 8.79367Z" fill="white"/>
<path d="M4.10045 8.79367C6.36507 8.79367 8.2009 6.95784 8.2009 4.69322C8.2009 2.42861 6.36507 0.592773 4.10045 0.592773C1.83583 0.592773 0 2.42861 0 4.69322C0 6.95784 1.83583 8.79367 4.10045 8.79367Z" fill="white"/>
<path d="M57.5841 1.68427V1.28711H64.8319V1.68427H62.8367V28.6914H64.8319V29.0885H57.5841V28.6914H59.4571V1.68427H57.5841Z" fill="white"/>
<path d="M69.1219 29.0885V28.7708C69.692 28.7708 70.262 28.559 70.8321 28.1353C71.4293 27.7117 71.8772 27.2881 72.1758 26.8644L77.2656 19.5566L70.0177 9.23037H72.9902L79.22 18.0871L85.2463 9.23037H85.6535L79.3829 18.3651L86.9564 29.0885H83.984L77.4284 19.7949L73.0309 26.229C72.9766 26.3084 72.9087 26.4143 72.8273 26.5467C72.7458 26.6791 72.5694 26.9041 72.298 27.2219C72.0265 27.5396 71.7415 27.8176 71.4429 28.0559C70.6285 28.7443 69.8549 29.0885 69.1219 29.0885Z" fill="white"/>
<path d="M110.402 1.28711C110.918 1.79018 111.176 2.43888 111.176 3.23321C111.176 3.89515 111.027 4.57032 110.728 5.25874L100.304 29.0885L99.8564 29.2871L89.5955 1.28711H93.0565L101.567 24.7992L110.24 5.25874C110.538 4.5968 110.687 3.90839 110.687 3.19349C110.687 2.4786 110.484 1.92257 110.077 1.52541L110.402 1.28711Z" fill="white"/>
<path d="M118.173 29.0885C117.06 29.0885 116.205 28.8502 115.608 28.3736C115.038 27.897 114.739 27.4204 114.712 26.9438L114.671 26.2687V9.23037H117.522V26.2687C117.522 27.0365 117.671 27.6323 117.97 28.0559C118.295 28.4531 118.608 28.6649 118.906 28.6914L119.395 28.7708H120.657V29.0885H118.173ZM114.916 4.78214C114.59 4.46441 114.427 4.06725 114.427 3.59066C114.427 3.11406 114.59 2.7169 114.916 2.39917C115.241 2.05496 115.649 1.88285 116.137 1.88285C116.626 1.88285 117.033 2.05496 117.359 2.39917C117.712 2.7169 117.888 3.11406 117.888 3.59066C117.888 4.06725 117.712 4.46441 117.359 4.78214C117.033 5.09988 116.626 5.25874 116.137 5.25874C115.649 5.25874 115.241 5.09988 114.916 4.78214Z" fill="white"/>
<path d="M135.413 10.6204C134.979 10.2762 134.273 9.98498 133.296 9.74668C132.346 9.50839 131.626 9.38924 131.138 9.38924C130.649 9.38924 130.364 9.38924 130.283 9.38924C128.817 9.41572 127.758 9.7864 127.107 10.5013C126.455 11.1897 126.129 11.9708 126.129 12.8446C126.129 13.7183 126.414 14.4597 126.985 15.0687C127.555 15.6512 128.26 16.1145 129.102 16.4587C129.97 16.7765 130.893 17.1472 131.871 17.5708C132.875 17.9944 133.798 18.4313 134.639 18.8814C135.508 19.3051 136.227 19.9405 136.798 20.7878C137.368 21.6086 137.653 22.6412 137.653 23.8857C137.653 25.1301 137.205 26.1892 136.309 27.063C135.413 27.9368 134.409 28.5193 133.296 28.8105C132.21 29.1018 131.029 29.2474 129.753 29.2474C126.984 29.2474 124.908 28.6516 123.523 27.4602L123.768 27.2219C124.311 27.7249 125.111 28.1353 126.17 28.4531C127.256 28.7708 128.301 28.9297 129.305 28.9297C130.907 28.9297 132.224 28.506 133.255 27.6587C134.314 26.785 134.843 25.7126 134.843 24.4417C134.843 23.1443 134.449 22.1117 133.662 21.3438C132.875 20.5495 131.911 19.9405 130.771 19.5169C129.658 19.0668 128.532 18.6299 127.392 18.2063C126.252 17.7561 125.288 17.1472 124.501 16.3793C123.713 15.585 123.32 14.6715 123.32 13.6389C123.32 12.6063 123.564 11.7722 124.053 11.1368C124.541 10.4748 125.193 10.0115 126.007 9.74668C127.392 9.29657 128.776 9.07151 130.161 9.07151C132.495 9.07151 134.314 9.49515 135.617 10.3424L135.413 10.6204Z" fill="white"/>
<path d="M140.498 9.5481V9.23037H141.353V5.25874H144.203V9.23037H150.433V9.5481H144.203V24.0048C144.203 25.7259 144.393 26.9703 144.773 27.7382C145.18 28.506 146.008 28.8899 147.257 28.8899C148.533 28.8899 149.822 28.6384 151.125 28.1353L151.247 28.4531C149.89 28.9561 148.329 29.2077 146.565 29.2077C144.827 29.2077 143.525 28.8635 142.656 28.1751C141.787 27.4602 141.353 26.0568 141.353 23.9651V9.5481H140.498Z" fill="white"/>
<path d="M170.322 29.0885C168.476 29.0885 167.214 28.7443 166.535 28.0559C165.911 27.4734 165.599 26.9703 165.599 26.5467V25.7126C164.268 28.0691 162.138 29.2474 159.206 29.2474C155.786 29.2474 153.845 27.7382 153.383 24.7197C153.329 24.402 153.302 24.0843 153.302 23.7665C153.302 23.4223 153.356 23.0516 153.465 22.6545C153.573 22.2573 153.885 21.8204 154.401 21.3438C155.433 20.3907 157.699 19.8081 161.201 19.5963C162.07 19.5169 162.87 19.4772 163.603 19.4772C164.336 19.4772 165.001 19.5037 165.599 19.5566V12.9637C165.544 12.9372 165.544 12.8181 165.599 12.6063C165.653 12.368 165.599 12.0767 165.436 11.7325C165.3 11.3618 165.11 11.0044 164.866 10.6602C164.621 10.316 164.187 10.0247 163.563 9.7864C162.938 9.52163 162.124 9.38924 161.12 9.38924C160.115 9.38924 158.934 9.57458 157.577 9.94527C156.247 10.2895 155.27 10.6337 154.645 10.9779L154.483 10.6999C156.898 9.6143 159.355 9.07151 161.853 9.07151C164.648 9.07151 166.494 9.56134 167.39 10.541C168.096 11.3089 168.449 12.1164 168.449 12.9637V26.2687C168.449 27.0365 168.598 27.6323 168.897 28.0559C169.222 28.4531 169.548 28.6649 169.874 28.6914L170.322 28.7708H171.584V29.0885H170.322ZM159.857 28.9297C161.296 28.9297 162.585 28.4531 163.726 27.4999C164.893 26.5202 165.517 25.5803 165.599 24.68V19.8743C164.866 19.8214 164.119 19.7949 163.359 19.7949C162.626 19.7949 161.893 19.8346 161.16 19.9141C159.097 20.1524 157.754 20.6025 157.129 21.2644C156.505 21.9264 156.193 22.8398 156.193 24.0048C156.193 24.2167 156.206 24.455 156.233 24.7197C156.478 27.5264 157.686 28.9297 159.857 28.9297Z" fill="white"/>
</svg>
