<svg width="345" height="257" viewBox="0 0 345 257" fill="none" xmlns="http://www.w3.org/2000/svg">
<g clip-path="url(#clip0_436_1319)">
<path d="M14.646 123.73H71.6155C76.5598 123.73 81.3015 121.765 84.7975 118.269C88.2935 114.773 90.2574 110.031 90.2573 105.086V19.1432C90.2575 14.1909 88.2905 9.44134 84.789 5.93932C81.2875 2.43729 76.5382 0.469646 71.5859 0.469238L47.8292 0.469238L-3.99835 52.2968V105.086C-3.99844 107.534 -3.51626 109.959 -2.57933 112.221C-1.6424 114.483 -0.269078 116.538 1.46222 118.27C3.19352 120.001 5.24889 121.374 7.51097 122.311C9.77305 123.248 12.1975 123.73 14.646 123.73V123.73ZM29.1476 31.0252H57.2214L57.1139 93.1725H29.1476V31.0252Z" stroke="#D1392C" stroke-width="1.73201"/>
<path d="M71.6025 133.142H14.6497C12.2005 133.141 9.77534 133.624 7.51261 134.561C5.24988 135.498 3.19391 136.872 1.46211 138.604C-0.269696 140.336 -1.64342 142.391 -2.58061 144.654C-3.5178 146.917 -4.00011 149.342 -4 151.791L-4 237.783C-4.00011 240.232 -3.5178 242.657 -2.58061 244.92C-1.64342 247.183 -0.269704 249.239 1.4621 250.971C3.1939 252.702 5.24986 254.076 7.51259 255.013C9.77533 255.951 12.2005 256.433 14.6497 256.433H71.6025C74.0553 256.433 76.4841 255.95 78.7502 255.011C81.0163 254.072 83.0753 252.697 84.8097 250.962C86.544 249.228 87.9198 247.169 88.8584 244.903C89.797 242.637 90.2801 240.208 90.2801 237.755V185.032H39.7078V210.416H57.2364V225.869H29.154V163.707H57.2364V174.921H90.2801V151.821C90.2799 146.867 88.3121 142.116 84.8095 138.613C81.3069 135.111 76.5563 133.142 71.6025 133.142V133.142Z" stroke="#D1392C" stroke-width="1.73201"/>
<path d="M344.576 204.857V151.791C344.576 149.342 344.093 146.917 343.156 144.654C342.219 142.391 340.845 140.335 339.113 138.604C337.381 136.872 335.325 135.498 333.063 134.561C330.8 133.624 328.375 133.141 325.925 133.142H250.295V256.433H293L344.576 204.857ZM283.34 163.707H311.422V225.869H283.34V163.707Z" stroke="#D1392C" stroke-width="1.73201"/>
<path d="M176.772 212.989V208.31C181.717 208.31 186.459 206.345 189.956 202.849C193.452 199.353 195.416 194.611 195.417 189.666V151.858C195.416 146.913 193.452 142.171 189.955 138.675C186.459 135.178 181.717 133.214 176.772 133.214H101.159V256.475H134.303V214.527H150.879L164.344 256.475H200.598L190.428 223.103C189.536 220.177 187.727 217.614 185.269 215.793C182.81 213.972 179.832 212.989 176.772 212.989V212.989ZM162.271 182.416H134.303V163.772H162.271V182.416Z" stroke="#D1392C" stroke-width="1.73201"/>
<path d="M239.287 133.223H206.134V256.514H239.287V133.223Z" stroke="#D1392C" stroke-width="1.73201"/>
<path d="M188.703 47.2361H135.798V31.1819H193.447V0.626465H102.062V123.886L135.798 123.931V77.7932H188.703V47.2361Z" stroke="#D1392C" stroke-width="1.73201"/>
<path d="M292.776 47.2361H239.871V31.1819H297.52V0.626465H206.134V123.886L239.871 123.931V77.7932H292.776V47.2361Z" stroke="#D1392C" stroke-width="1.73201"/>
</g>
<defs>
<clipPath id="clip0_436_1319">
<rect width="348.576" height="256.045" fill="white" transform="translate(-4 0.469238)"/>
</clipPath>
</defs>
</svg>
