<svg width="658" height="675" viewBox="0 0 658 675" fill="none" xmlns="http://www.w3.org/2000/svg">
<path fill-rule="evenodd" clip-rule="evenodd" d="M594.783 367.843C582.222 384.801 565.936 398.417 551.749 413.97C533.279 434.218 518.349 457.85 507.879 483.41C497.045 509.856 490.258 539.464 470.315 559.584C441.624 588.531 394.236 587.93 357.064 572.089C299.041 547.363 257.972 493.332 226.53 437.563C220.215 426.362 213.809 414.582 203.377 407.302C184.412 394.067 159.157 399.695 136.315 401.901C120.079 403.469 103.17 402.904 88.2606 396.131C65.9321 385.987 50.9729 362.707 46.1326 338.167C41.2924 313.628 45.4805 288.011 53.31 264.297C74.7807 199.265 124.233 145.051 185.062 116.322C245.891 87.5934 317.166 84.085 381.212 104.163C409.272 112.96 436.848 126.75 455.782 149.729C472.482 169.998 481.561 196.288 499.897 215.012C517.454 232.941 541.539 242.011 563.394 253.986C585.249 265.961 606.901 283.546 611.878 308.431C616.049 329.29 607.344 350.885 594.783 367.843Z" fill="#FF4A3B"/>
<path fill-rule="evenodd" clip-rule="evenodd" d="M139.124 153.311L139.626 153.338C148.473 153.86 158.69 157.711 160.795 166.535C166.912 144.04 180.859 123.872 199.54 110.508C193.788 122.988 191.541 137.14 193.136 150.845C198.134 137.82 207.368 126.545 219.017 119.244C213.74 126.906 210.721 136.181 210.453 145.557C210.258 152.375 211.623 159.513 215.787 164.833C218.476 168.269 222.155 170.737 225.911 172.877C226.851 173.413 227.799 173.93 228.756 174.428C229.136 174.626 229.517 174.82 229.899 175.012C230.785 175.456 231.678 175.885 232.577 176.298C233.382 176.668 234.193 177.025 235.008 177.37L235.548 177.596C236.086 177.819 236.626 178.037 237.168 178.249L238.061 178.593V178.593L238.561 178.781L239.532 179.136L239.899 179.267L240.748 179.563C241.314 179.757 241.882 179.946 242.452 180.128L243.593 180.486L244.337 180.71L245.233 180.971L246.054 181.201L247.23 181.516V181.516L247.745 181.649L248.536 181.847L248.994 181.958V181.958L249.798 182.147L250.409 182.285L250.803 182.372L251.868 182.598L252.955 182.816L254.001 183.012L255.048 183.196L256.151 183.377L257.164 183.532L258.253 183.685L259.327 183.823L260.298 183.937L260.904 184.004L261.817 184.096L262.465 184.156L263.129 184.213L264.208 184.295L264.558 184.319L265.646 184.386L266.709 184.439L267.742 184.479L268.416 184.499L269.43 184.521L269.905 184.527L270.985 184.533V184.533L272.065 184.526L272.53 184.519L273.501 184.498L274.636 184.462L275.296 184.434L276.295 184.383L277.39 184.316L278.453 184.239L279.532 184.148L280.056 184.1L281.104 183.994L282.209 183.87L282.761 183.803L283.754 183.675L284.816 183.526L285.433 183.434L285.946 183.355V183.355L286.459 183.272L287.446 183.105L288.098 182.989L288.539 182.908L289.102 182.802L290.172 182.589L290.66 182.488L291.2 182.373L292.15 182.163L293.244 181.908L294.256 181.661L294.828 181.515L295.809 181.257L296.401 181.096L297.408 180.812L298.44 180.509L298.912 180.366L299.529 180.175L300.518 179.859L300.985 179.706L301.489 179.537L302.069 179.339L302.477 179.197L303.075 178.985L304.053 178.629L304.561 178.439L305.572 178.05L306.534 177.668L307.528 177.259L308.427 176.879L309.062 176.602L310.011 176.179L310.482 175.964L310.924 175.76L311.444 175.515L311.943 175.277L312.379 175.065L313.373 174.572L313.83 174.341L314.3 174.099L315.204 173.624L315.749 173.331L316.215 173.077L317.189 172.534L317.572 172.316L318.147 171.984L318.52 171.765L319.006 171.477L319.469 171.198L319.933 170.915V170.915L320.842 170.349L321.716 169.79L322.235 169.45L322.638 169.184L323.118 168.861L323.503 168.599L324.012 168.249L324.399 167.978L324.845 167.663L325.336 167.31L325.736 167.019L326.201 166.676C326.387 166.539 326.572 166.401 326.756 166.262C326.823 165.277 326.749 164.415 326.562 163.642C325.797 163.155 325.042 162.619 324.296 162.034C321.692 159.989 319.253 156.549 316.981 151.714L316.382 150.878C313.035 146.15 310.502 141.607 310.347 140.884C309.314 136.069 309.002 131.162 309.059 126.23L309.052 126.2V126.2C308.569 122.829 308.807 119.382 309.595 115.931C309.734 114.213 309.889 112.498 310.044 110.788L310.747 111.929L310.812 111.741V111.741C311.588 109.524 313.099 113.758 314.799 118.503L319 125.318C316.537 108.127 322.859 89.8656 335.343 78.1133C329.206 103.078 336.357 131.042 353.651 149.711C373.925 171.595 405.429 179.97 424.835 202.667C442.26 223.048 447.001 251.374 458.058 276.006L458.429 276.826C462.38 285.486 467.753 294.264 476.338 297.999C484.704 301.639 494.264 299.72 503.146 297.747L528.078 292.208C519.368 311.949 493.66 321.548 474.605 312.173C480.813 321.34 492.281 326.442 503.053 324.83C518.636 322.498 530.795 307.79 546.519 306.907C550.645 306.675 555.136 307.627 557.876 310.798C561.82 315.363 560.395 323.085 555.976 327.168C551.557 331.251 545.111 332.245 539.2 331.557C546.456 328.744 554.185 313.705 549.012 314.267C536.515 315.624 516.72 326.048 502.589 337.403C505.74 336.522 509.485 337.097 512.685 336.431C520.173 334.871 522.94 333.394 529.44 331.557C525.982 339.16 517.559 340.876 508.918 345.221C522.616 343.201 535.714 339.221 549.412 337.2C554.354 336.471 567.035 341.311 566.732 343.474C566.625 344.232 557.834 344.097 556.328 344.056C550.526 343.896 546.304 342.762 541.258 345.703C526.989 354.021 507.038 355.125 491.698 349.134L494.313 351.172L496.284 352.695C505.505 359.786 515.08 366.529 525.982 370.21C538.557 374.456 553.445 373.949 563.84 365.593L564.197 365.302C572.26 358.612 582.424 354.627 592.783 354.091C581.055 359.864 570.283 367.671 561.062 377.079C569.348 371.789 580.331 371.265 589.06 375.743C582.412 375.883 575.806 377.779 570.053 381.199C567.725 382.583 565.259 385.413 566.732 387.722C567.394 388.762 568.65 389.209 569.837 389.455C579.089 391.373 587.685 385.356 595.484 379.543L597.833 377.789C606.243 371.524 617.809 366.045 626.505 371.886C609.649 381.531 597.946 400.529 579.219 405.332C564.268 409.167 548.717 402.817 535.091 395.436L531.776 393.634L530.397 392.89C522.717 388.776 514.7 385.015 506.185 385.656C495.92 386.429 485.826 397.234 489.869 406.937C492.502 413.257 499.727 416.181 506.401 416.833C513.075 417.484 519.911 416.537 526.44 418.098C541.017 421.583 550.375 434.966 561.479 445.284L564.017 447.611L564.767 448.291C570.728 453.67 578.709 460.294 587.103 462.743C596.541 465.497 606.56 462.642 611.925 462.743C622.875 462.95 634.672 466.451 640.942 475.656L639.319 475.183L638.219 474.871C631.637 473.032 625.455 471.832 619.351 473.162C616.372 473.81 598.392 484.43 579.219 476.769C563.902 470.65 551.68 457.199 545.468 452.448C536.364 445.485 507.14 429.692 510.363 433.231C510.739 434.411 509.3 434.072 506.562 432.616L507.029 433.647C512.423 445.775 512.848 455.306 508.305 462.239C503.577 469.455 496.64 470.533 487.494 465.472L485.408 464.037C480.057 460.344 476.404 457.725 474.447 456.18C472.565 454.693 477.4 486.782 487.494 496.88C492.218 501.606 507.438 504.669 520.305 510.933C523.946 512.705 528 516.312 532.466 521.755C526.383 518.616 521 516.613 516.319 515.746C496.031 511.992 481.499 516.729 472.865 505.153C464.23 493.578 465.327 489.394 464.412 479.534L462.801 462.239V462.239C453.012 476.981 443.847 486.68 435.308 491.336C427.66 495.506 419.945 495.461 412.163 491.2L411.799 490.997L411.962 491.097C418.378 494.974 423.954 497.655 428.691 499.139C434.04 500.814 440.803 501.743 448.982 501.925C425.497 516.505 405.009 514.823 387.518 496.88L386.567 495.897C377.032 485.978 363.865 470.091 356.635 446.816L356.096 445.059C352.969 434.954 350.098 428.737 352.463 409.385L352.736 407.214C353.314 402.439 353.945 394.451 352.619 386.857C352.035 383.512 349.888 378.57 346.179 372.032C331.03 390.535 322.921 408.864 321.853 427.02C320.785 445.175 324.706 466.014 333.616 489.536L333.795 490.026L333.935 490.435C335.918 492.593 337.841 495.137 339.632 498.224C348.831 514.079 361.533 529.311 362.15 547.747C362.536 559.272 357.697 570.871 349.3 578.546C356.408 559.633 350.925 536.491 336.204 522.981L335.755 522.574C319.712 508.244 309.523 487.233 308.063 465.472C308.177 465.906 308.3 466.326 308.433 466.734C306.497 457.365 305.645 447.8 305.877 438.036L305.905 437.024C306.235 426.428 307.873 411.514 310.819 392.282L310.068 394.368C307.197 402.428 305.181 409.129 304.553 412.821C300.044 439.33 300.803 473.571 304.553 491.507L302.437 492.207C268.547 503.375 250.465 507.318 248.192 504.034L240.144 491.507C215.335 446.949 208.233 389.089 219.665 337.716L220.017 336.162L219.792 336.846C215.291 350.64 211.174 370.89 209.888 389.137L209.807 390.332C208.583 409.594 210.701 426.401 209.913 429.998L209.888 430.105C207.557 439.226 219.237 474.294 233.152 498.611C242.048 514.156 255.964 522.797 254.305 525.654C253.022 527.864 233.455 514.701 217.414 499.157L216.511 498.275C201.832 483.829 190.616 467.446 190.333 470.172C188.661 486.252 209.888 518.04 209.888 521.581L209.884 523.227C209.815 538.211 208.74 550.49 203.456 563.267L203.031 564.282C200.094 571.193 196.062 578.555 188.976 580.174C195.798 569.561 200.675 557.64 203.278 545.214C204.419 539.768 205.127 534.135 204.299 528.63C203.206 521.369 199.507 514.779 195.19 508.914C184.179 493.955 168.137 481.201 165.254 462.696C163.764 453.131 166.134 443.381 165.806 433.701C165.491 424.397 162.694 415.374 161.591 406.132C158.823 382.924 167.515 358.58 184.246 342.688C166.215 344.48 148.826 352.486 135.542 365.112C129.411 370.94 124.077 377.759 117.087 382.464C108.14 388.488 97.272 390.533 86.7312 392.446C105.748 379.394 122.241 362.493 134.979 343.004C125.081 356.114 110.032 365.013 94.0049 367.232L95.1242 366.482C104.999 359.819 114.492 352.003 120.28 341.465C126.285 330.529 127.505 316.066 120.511 305.766C113.517 295.466 97.2215 292.215 88.6576 301.183C97.6011 289.581 111.324 281.983 125.693 280.678C139.736 279.402 157.935 281.532 170.357 274.606C148.923 270.157 127.221 267.069 105.416 265.368C101.283 265.045 96.3102 264.355 91.7549 263.495C87.1149 262.876 83.1239 261.962 80.0038 260.346C79.659 260.185 79.359 260.027 79.1098 259.871C79.0035 259.804 78.905 259.74 78.8139 259.677L78.6047 259.531V259.531L78.5537 259.49C76.4747 257.887 79.7261 257.723 81.2004 257.228C80.5577 256.448 78.8148 255.961 78.7134 255.215C78.7057 255.159 78.7254 255.099 78.7662 255.037L78.7155 254.874V254.874C78.6431 254.056 80.6226 253.997 80.5502 253.178C79.9742 252.006 78.9315 251.937 78.9138 251.358L78.8162 251.247C78.3619 250.7 78.4433 250.291 80.3531 250.314L80.5502 250.318C84.8917 250.429 86.9098 250.772 90.8332 252.604L90.8955 252.62V252.62L89.988 251.612C88.8671 250.344 87.5396 248.604 88.8987 247.97C88.9396 247.941 88.9893 247.921 89.0483 247.909C89.2954 247.819 89.6156 247.76 90.0196 247.737C96.6336 247.359 97.4716 250.848 102.933 250.933L104.255 250.95C126.214 251.175 165.6 248.941 164.23 248.457C162.831 247.964 135.747 227.757 118.981 228.249C110.676 228.493 101.896 231.419 94.3721 227.809C108.126 221.979 124.023 220.171 137.893 225.705C145.72 228.828 152.551 234.102 160.156 237.757C176.569 245.645 196.506 245.358 212.698 237.002C194.834 237.433 176.882 233.219 160.982 224.861C183.785 227.367 207.112 224.734 228.837 217.203C212.113 207.313 192.81 203.038 173.42 202.28L170.665 202.28C166.284 202.269 162.937 202.213 160.404 202.281L159.586 202.308V202.308C135.701 203.296 112.224 208.633 88.7526 213.272C87.9651 213.428 87.1035 213.516 86.2264 213.529L86.0068 213.53C82.1961 213.53 78.183 212.099 78.7155 208.578C90.6516 208.354 101.141 201.007 111.918 195.744C125.836 188.947 141.25 185.399 156.665 185.431L157.506 185.436L158.347 185.449V185.449C158.121 185.191 157.893 184.935 157.663 184.681L157.154 184.128V184.128L156.703 183.651V183.651L156.246 183.179C155.664 182.585 155.069 182.003 154.462 181.436L153.937 180.953L153.415 180.484V180.484L152.697 179.858L152.251 179.479L151.763 179.075V179.075L151.09 178.532L150.781 178.288L150.311 177.925V177.925L149.572 177.368L149.076 177.005V177.005L148.316 176.465L148.182 176.372C147.808 176.112 147.43 175.857 147.049 175.606L146.647 175.344L146.154 175.03L145.624 174.699L145.036 174.342L144.313 173.916L143.696 173.565L143.173 173.275L142.663 172.999L141.894 172.596L141.314 172.303L140.484 171.897L139.881 171.613V171.613L139.126 171.27L138.331 170.923L137.701 170.659C137.312 170.499 136.92 170.343 136.527 170.192L135.937 169.969C135.366 169.756 134.791 169.554 134.214 169.362C133.958 169.277 133.702 169.193 133.446 169.112L132.885 168.938C132.69 168.879 132.494 168.82 132.299 168.763L131.722 168.599C122.978 166.153 115.776 158.615 113.573 149.602C121.165 153.946 130.422 152.861 139.124 153.311ZM175.143 275.622L175.316 275.677C177.618 276.391 180.86 277.189 184.8 277.819C181.588 277.055 178.369 276.323 175.143 275.622ZM91.4794 248.653L91.4898 248.658L92.0081 248.85C92.4623 249.014 92.9725 249.188 93.5433 249.367L93.0993 249.153C92.5767 248.911 92.0377 248.703 91.4794 248.653Z" fill="#D9D9D9"/>
<path fill-rule="evenodd" clip-rule="evenodd" d="M348.137 330.216C346.231 329.82 343.999 329.523 342.563 330.868C327.52 344.956 319.496 365.13 313.096 384.959C308.769 398.367 304.948 412.049 303.627 426.106C302.564 437.416 303.133 448.812 303.703 460.159C304.225 470.547 304.747 480.934 305.269 491.322C304.103 492.128 282.871 459.285 290.205 416.058C297.538 372.831 316.107 335.048 328.688 322.266C346.393 308.986 365.643 333.854 348.137 330.216Z" fill="#E7EAEE"/>
<path d="M137.19 229.58C144.652 232.662 150.851 238.236 157.896 242.218C165.57 246.555 174.133 248.941 182.677 250.933C212.042 257.781 125.728 224.845 137.19 229.58Z" fill="white"/>
<path fill-rule="evenodd" clip-rule="evenodd" d="M313.713 251.528C334.349 235.04 338.263 243.575 342.95 241.281C337.541 245.812 331.704 251.139 331.128 258.276C330.772 262.685 332.546 266.954 334.349 270.974C336.851 276.55 339.537 282.149 343.557 286.698C351.728 295.944 316.339 274.954 313.367 268.117C311.995 264.962 310.592 261.617 310.966 258.184C311.23 255.765 312.053 252.855 313.713 251.528Z" fill="#E7EAEE"/>
<path d="M319.637 213.58C320.555 208.936 324.234 205.426 327.99 202.665C339.402 194.278 353.463 189.743 367.505 189.921C366.548 189.458 368.637 189.765 370.822 191.634C373.542 193.961 374.958 195.651 376.054 199.715C372.475 199.035 369.161 196.979 366.914 194.044C367.87 199.232 372.11 203.617 377.162 204.644C374.317 205.402 371.713 207.08 369.813 209.379C374.476 207.623 380.217 209.678 382.799 214.029C375.702 213.081 368.237 215.625 363.105 220.739C371.017 217.722 380.588 219.997 386.396 226.275C374.863 225.363 363.298 224.878 351.73 224.822C357.817 226.072 363.381 229.814 366.923 235.04C366.087 235.043 360.945 234.514 351.73 231.932C345.974 230.32 329.676 224.822 329.676 224.822C329.676 224.822 327.983 223.777 327.221 223.268C321.627 219.534 319.099 216.304 319.637 213.58Z" fill="white"/>
<ellipse cx="336.122" cy="200.214" rx="2.7915" ry="3.36457" fill="#FFB61D"/>
<path fill-rule="evenodd" clip-rule="evenodd" d="M328.313 1.40944C327.902 1.52685 327.251 1.44699 327.316 1.01422C327.562 0.884762 327.838 0.751557 328.105 0.824353C328.372 0.89715 328.546 1.29375 328.331 1.47212L328.313 1.40944Z" fill="#00160A"/>
<ellipse cx="347.316" cy="218.936" rx="3.06624" ry="3.59065" fill="#FFB61D"/>
<path fill-rule="evenodd" clip-rule="evenodd" d="M562.149 445.902L561.907 445.679C559.07 443.075 556.352 440.261 553.639 437.452C545.549 429.078 537.496 420.741 526.44 418.098C522.453 417.144 518.351 417.127 514.242 417.109C511.622 417.098 508.999 417.087 506.401 416.833C499.727 416.181 492.502 413.257 489.869 406.937C485.826 397.234 495.92 386.429 506.185 385.656C515.805 384.932 524.789 389.826 533.37 394.501C533.946 394.814 534.519 395.127 535.091 395.436C548.717 402.817 564.268 409.167 579.219 405.332C590.352 402.477 599.003 394.605 607.729 386.664C613.682 381.246 619.67 375.797 626.505 371.886C617.809 366.045 606.243 371.524 597.833 377.789C597.43 378.089 597.025 378.391 596.618 378.696C588.521 384.751 579.54 391.467 569.837 389.455C568.65 389.209 567.394 388.762 566.732 387.722C565.259 385.413 567.725 382.583 570.053 381.199C575.806 377.779 582.412 375.883 589.06 375.743C580.331 371.265 569.348 371.789 561.062 377.079C570.283 367.671 581.056 359.864 592.783 354.091C582.424 354.627 572.26 358.612 564.197 365.302C553.788 373.937 538.701 374.505 525.982 370.21C513.263 365.916 502.35 357.453 491.698 349.134C507.038 355.125 526.989 354.021 541.258 345.703C545.258 343.371 548.741 343.601 552.903 343.876C553.991 343.948 555.126 344.023 556.328 344.056C557.834 344.097 566.626 344.232 566.732 343.474C567.035 341.311 554.354 336.471 549.412 337.2C542.563 338.21 535.864 339.711 529.165 341.211C522.466 342.711 515.767 344.211 508.918 345.221C510.991 344.179 513.05 343.288 515.032 342.431C521.314 339.714 526.811 337.337 529.44 331.557C527.02 332.241 525.118 332.875 523.296 333.482C520.226 334.505 517.386 335.452 512.685 336.431C511.212 336.738 509.622 336.781 508.029 336.825C506.162 336.876 504.289 336.928 502.589 337.403C516.72 326.048 536.515 315.624 549.012 314.267C554.185 313.705 546.456 328.744 539.2 331.557C545.111 332.245 551.557 331.251 555.976 327.168C560.395 323.085 561.82 315.363 557.876 310.798C555.136 307.627 550.645 306.675 546.519 306.907C538.26 307.371 530.984 311.649 523.679 315.945C517.077 319.827 510.451 323.723 503.053 324.83C492.281 326.442 480.814 321.34 474.605 312.173C493.66 321.548 519.368 311.949 528.078 292.208L503.146 297.747C494.264 299.72 484.704 301.639 476.338 297.999C467.753 294.264 462.38 285.486 458.429 276.826C454.611 268.458 451.552 259.645 448.498 250.849C442.495 233.555 436.514 216.327 424.835 202.667C414.823 190.957 401.59 183.059 388.341 175.151C375.911 167.732 363.465 160.304 353.651 149.711C336.357 131.042 329.206 103.078 335.343 78.1133C322.859 89.8656 316.537 108.127 319 125.318L310.044 110.788C309.135 120.82 308.236 131.044 310.347 140.884C312.459 150.725 318.104 160.3 327.05 164.473C314.273 152.452 308.148 133.45 311.424 115.992C313.049 121.991 316.722 127.385 321.655 131.017C318.795 113.492 323.074 94.8591 333.26 80.4824C327.156 107.425 336.44 137.442 356.571 155.858C365.232 163.781 375.487 169.512 385.738 175.24C396.403 181.2 407.063 187.157 415.918 195.577C433.507 212.306 441.85 236.617 449.427 259.954C453.88 273.67 459.074 288.476 470.977 296.228C487.046 306.695 508.049 300.053 525.857 293.148C516.378 312.592 489.259 320.163 471.471 308.332C475.356 319.71 487.028 327.759 498.774 327.16C507.343 326.723 515.235 322.286 523.031 317.903C532.491 312.585 541.809 307.347 552.018 309.433C553.67 309.771 555.328 310.326 556.62 311.432C560.308 314.589 559.395 321.043 556.037 324.565C552.679 328.088 547.77 329.437 543.112 330.642C547.213 328.116 551.645 325.166 552.972 320.453C554.299 315.741 553.451 312.912 549.412 312.912C533.727 312.912 516.605 324.827 502.547 334.609C501.284 335.488 500.046 336.35 498.836 337.184C508.363 339.182 518.547 337.716 527.169 333.105C519.208 339.401 509.307 343.08 499.26 343.474C508.638 350.009 520.313 346.699 532.014 343.383C543.6 340.099 555.21 336.809 564.637 343.064C554.974 339.103 544.875 342.701 534.651 346.344C525.664 349.546 516.58 352.782 507.609 350.951C505.619 350.545 503.604 349.895 501.592 349.246C496.552 347.619 491.527 345.998 486.931 348.222C498.965 358.501 512.812 366.543 527.599 371.84C535.445 374.65 544.027 376.692 552.005 374.302C557.184 372.75 561.638 369.475 566.082 366.206C570.889 362.67 575.686 359.143 581.376 357.815C570.806 364.431 561.486 373.137 554.079 383.312C563.226 375.86 575.67 372.845 587.103 375.311C584.844 376.039 582.465 376.265 580.091 376.491C577.32 376.754 574.555 377.017 571.991 378.076C567.231 380.043 563.901 387.148 567.908 390.436C569.168 391.47 570.837 391.817 572.449 391.924C581.374 392.52 589.11 387.013 596.812 381.53C604.795 375.848 612.742 370.191 621.94 371.381C613.15 380.475 604.168 389.598 593.411 396.101C582.654 402.604 569.775 406.315 557.555 403.675C549.808 402.001 542.859 397.946 535.936 393.906C534.102 392.836 532.27 391.766 530.425 390.742C521.617 385.855 511.554 381.839 501.768 384.021C491.982 386.203 483.572 396.964 487.028 406.6C489.522 413.555 496.948 417.346 504.059 418.676C507.145 419.253 510.283 419.498 513.418 419.744C517.508 420.063 521.593 420.383 525.553 421.438C537.104 424.515 545.738 433.135 554.455 441.839C560.985 448.358 567.562 454.925 575.447 459.244C583.027 463.395 584.474 465.249 586.336 465.882C588.106 466.483 590.251 465.981 598.392 465.302C611.518 464.206 626.595 463.47 635.762 473.162C625.537 467.469 618.933 470.054 611.435 472.991C605.646 475.257 599.323 477.733 590.39 476.769C577.692 475.4 567.575 466.644 557.516 457.937C553.773 454.697 550.038 451.465 546.181 448.622C543.712 446.802 541.428 445 539.251 443.282C528.887 435.104 520.919 428.816 506.667 431.42C510.374 439.312 511.416 448.489 509.577 457.043C508.626 461.464 506.579 466.104 502.558 467.976C497.352 470.399 491.391 467.22 486.679 463.9C477.449 457.396 468.848 449.955 461.042 441.721C460.343 440.983 459.647 440.236 458.95 439.488C454.43 434.64 449.856 429.735 444.013 426.807C426.362 417.962 404.701 431.233 395.117 448.815C398.302 436.589 407.587 426.213 419.195 421.908C430.802 417.603 444.415 419.488 454.493 426.795C456.736 428.421 458.967 430.334 461.213 432.26C468.472 438.485 475.881 444.838 484.337 442.049C475.43 442.564 468.46 436.587 461.342 430.483C456.987 426.748 452.577 422.967 447.634 420.594C433.762 413.937 416.828 419.392 404.835 429.159C397.398 435.216 390.804 445.518 395.184 454.159C401.967 435.549 422.775 421.011 440.851 428.174C448.352 431.147 454.142 437.169 459.833 443.088C460.669 443.957 461.502 444.824 462.339 445.679C468.954 452.438 476.085 458.665 483.645 464.286C488.059 467.567 493.075 470.775 498.514 470.376C506.071 469.822 511.643 462.179 512.685 454.486C513.728 446.794 512.716 440.613 510.363 433.231C507.14 429.692 536.364 445.485 545.468 452.448C547.002 453.621 548.901 455.324 551.123 457.316C557.903 463.393 567.684 472.161 579.219 476.769C595.255 483.176 610.456 476.796 616.744 474.157C617.974 473.641 618.863 473.268 619.351 473.162C626.289 471.65 633.33 473.407 640.942 475.656C634.672 466.451 622.875 462.95 611.925 462.743C610.299 462.713 608.245 462.954 605.909 463.228C600.539 463.858 593.68 464.662 587.103 462.743C577.409 459.915 568.266 451.518 562.149 445.902ZM505.769 344.539C506.592 344.297 507.477 344.287 508.305 344.508L508.256 344.673C507.427 344.754 506.585 344.709 505.769 344.539ZM137.19 229.58C141.721 231.451 145.786 234.241 149.858 237.036C152.492 238.844 155.129 240.654 157.896 242.218C165.57 246.555 174.133 248.94 182.677 250.933C212.042 257.78 242.335 260.429 272.406 258.777C282.831 258.205 293.521 257.034 302.797 252.123C314.349 246.007 322.787 234.064 324.853 220.905C320.239 221.183 316.969 215.53 317.886 210.887C318.803 206.243 322.482 202.733 326.239 199.972C337.651 191.585 351.712 187.05 365.753 187.228C364.832 186.782 364.164 186.247 363.483 185.701L363.483 185.701C362.575 184.974 361.646 184.23 360.068 183.659C363.697 181.933 367.508 182.991 370.588 185.607C369.096 182.709 369.347 178.956 371.211 176.294C374.697 183.49 380.656 189.396 387.79 192.725C380.282 191.213 373.732 185.439 371.15 178.057C370.523 182.586 371.858 187.357 374.701 190.879C371.271 187.013 366.509 184.407 361.462 183.659C368.454 186.198 374.078 192.386 376.054 199.715C372.475 199.035 369.161 196.979 366.914 194.044C367.87 199.232 372.11 203.617 377.162 204.644C374.317 205.402 371.713 207.08 369.813 209.379C374.476 207.623 380.217 209.678 382.799 214.029C375.702 213.081 368.237 215.625 363.105 220.739C371.017 217.722 380.588 219.997 386.396 226.275C374.863 225.364 363.298 224.879 351.73 224.822C357.817 226.072 363.381 229.814 366.923 235.04C363.201 235.052 359.483 233.839 356.452 231.625C359.215 231.224 362.106 231.827 364.497 233.302C359.535 228.852 353.434 225.748 346.975 224.388C359.14 223.007 371.475 223.201 383.594 224.962C377.152 220.366 368.427 219.346 361.141 222.337C365.109 215.86 372.853 212.04 380.267 212.903C377.016 209.669 371.579 209.058 367.722 211.493C368.393 208.159 371.037 205.328 374.257 204.495C371.774 203.166 369.197 201.755 367.575 199.414C365.953 197.074 365.638 193.511 367.645 191.508C368.841 194.052 370.79 196.214 373.159 197.653C373.443 197.906 373.783 198.101 374.194 198.222C373.841 198.048 373.496 197.858 373.159 197.653C372.222 196.821 371.88 195.364 371.526 193.856C371.182 192.394 370.828 190.883 369.908 189.847C368.547 188.314 366.267 188.189 364.245 188.269C349.475 188.853 334.954 194.737 323.786 204.665C321.028 207.117 318.247 210.78 319.629 214.245C320.308 215.947 321.85 217.096 323.318 218.152L333.452 225.446C331.124 225.23 328.843 224.492 326.816 223.299C324.012 236.391 315.152 247.977 303.419 253.893C294.831 258.224 285.122 259.546 275.583 260.34C247.72 262.659 219.544 260.971 192.134 255.342C190.124 254.929 188.115 254.494 186.107 254.06C178.693 252.457 171.274 250.853 163.725 250.317C154.708 249.678 144.013 250.459 133.537 251.225C117.58 252.391 102.129 253.519 93.8845 249.533C93.7968 249.491 93.7086 249.448 93.62 249.404C92.7019 248.953 91.7342 248.478 90.7003 248.696C88.1357 248.696 90.6739 250.592 93.0547 252.371C94.1088 253.159 95.1321 253.923 95.6678 254.49C93.046 253.925 90.7929 253.423 88.5397 252.921C86.2866 252.42 84.0335 251.918 81.4117 251.353C76.168 250.223 86.3986 254.825 90.0196 255.527C89.2057 255.466 88.0075 255.334 86.7151 255.191C82.7411 254.752 77.8762 254.215 80.5502 255.342C82.3218 256.088 83.9732 256.693 85.6245 257.299L85.6253 257.299L85.6261 257.299C87.2774 257.905 88.9288 258.51 90.7003 259.257C89.8047 259.234 88.4718 259.135 87.0506 259.03C82.9321 258.724 78.0731 258.363 80.9725 259.651C84.8724 261.383 99.3244 263.357 109.115 264.056C134.04 265.838 158.954 268.876 183.206 275.037C186.172 275.79 189.139 276.592 192.109 277.394L192.109 277.394C205.24 280.941 218.435 284.506 231.938 284.023C231.944 285.779 229.663 286.372 227.95 286.348C217.541 286.202 207.365 283.559 197.252 280.933C196.021 280.613 194.79 280.293 193.56 279.979C164.649 272.579 135.128 267.685 105.416 265.368C96.1347 264.644 82.6105 262.066 79.1098 259.871C76.6142 258.306 78.4245 257.894 80.0625 257.522C80.722 257.372 81.3537 257.228 81.6649 257.018L81.6325 257.007C80.5217 256.617 79.0612 256.105 78.7155 254.874C78.6793 254.465 79.1561 254.246 79.6329 254.026C80.1097 253.807 80.5864 253.588 80.5502 253.178C80.5194 252.831 80.0218 252.384 79.5354 251.947C78.565 251.075 77.6389 250.243 80.5502 250.317C84.9211 250.43 86.9371 250.777 90.9132 252.641C90.7971 252.506 90.6481 252.342 90.4804 252.158C89.1468 250.695 86.6278 247.93 90.0196 247.737C93.6012 247.532 95.4891 248.462 97.3346 249.37C98.8971 250.14 100.429 250.894 102.933 250.933C124.59 251.267 165.628 248.951 164.23 248.457C164.003 248.377 163.102 247.78 161.681 246.837C154.327 241.96 133.031 227.837 118.981 228.249C116.561 228.32 114.102 228.619 111.644 228.917C105.667 229.643 99.7042 230.367 94.3721 227.809C108.126 221.979 124.023 220.171 137.893 225.705C142.345 227.481 146.475 229.954 150.608 232.428C153.741 234.304 156.877 236.181 160.156 237.757C176.569 245.645 196.506 245.358 212.698 237.002C194.834 237.433 176.882 233.219 160.982 224.861C183.785 227.367 207.112 224.734 228.837 217.203C208.131 204.958 183.471 201.32 159.586 202.308C138.947 203.162 118.612 207.263 98.3221 211.355C95.1315 211.999 91.9421 212.642 88.7527 213.272C84.4868 214.115 78.0499 212.979 78.7155 208.578C88.016 208.404 96.4381 203.905 104.803 199.436C107.173 198.17 109.539 196.906 111.918 195.744C126.342 188.7 142.373 185.145 158.347 185.449C151.288 177.378 141.924 171.451 131.722 168.598C122.978 166.153 115.776 158.615 113.573 149.602C119.491 152.988 126.419 153.075 133.308 153.162C135.428 153.189 137.544 153.216 139.626 153.338C148.473 153.86 158.69 157.711 160.795 166.535C166.912 144.04 180.859 123.872 199.54 110.508C193.788 122.988 191.541 137.14 193.136 150.845C198.134 137.82 207.368 126.545 219.017 119.244C213.74 126.906 210.721 136.181 210.453 145.557C210.258 152.375 211.623 159.513 215.787 164.833C218.476 168.269 222.155 170.737 225.911 172.877C257.219 190.722 298.644 187.845 327.318 165.834C317.478 177.414 302.899 184.052 288.062 186.176C273.226 188.301 258.083 186.231 243.526 182.604C230.96 179.473 217.466 174.174 211.546 162.389C205.338 150.032 209.675 134.914 215.769 122.497C205.815 131.044 197.826 141.981 192.627 154.177C190.258 141.859 191.148 128.9 195.176 117.043C178.376 130.647 166.432 150.417 162.037 171.896C158.441 162.415 149.231 155.449 139.332 154.725C136.666 154.53 133.933 154.74 131.212 154.95C126.147 155.339 121.124 155.726 116.651 153.488C119.026 160.793 126.634 163.696 134.018 166.514C135.965 167.257 137.897 167.994 139.713 168.804C149.183 173.03 156.781 180.606 164.152 188.022C149.846 185.035 134.944 188.425 121.318 193.799C114.52 196.48 107.921 199.648 101.322 202.816C94.6928 205.999 88.0639 209.182 81.2338 211.87C89.8864 212.163 98.3963 209.962 106.805 207.787L106.831 207.78C107.347 207.647 107.863 207.513 108.379 207.38C141.656 198.812 177.553 193.015 209.67 205.39C212.594 206.517 215.464 207.788 218.334 209.058L218.334 209.058L218.334 209.059C222.38 210.849 226.423 212.639 230.614 214.025C255.01 222.089 281.511 215.726 306.14 208.44C285.811 219.838 261.649 223.883 238.839 219.707C232.144 218.481 225.404 220.403 218.792 222.288C217.794 222.573 216.799 222.857 215.807 223.129C202.004 226.914 187.627 228.496 173.354 227.8C193.664 237.138 216.414 235.212 239.158 233.286C261.992 231.353 284.821 229.42 305.17 238.885C277.312 232.2 247.985 232.028 220.054 238.387C217.192 239.039 214.312 239.758 211.42 240.48C196.956 244.09 182.21 247.77 168.178 243.421C161.98 241.5 156.382 238.118 150.777 234.732C145.809 231.73 140.835 228.725 135.433 226.732C124.211 222.592 111.405 223.179 100.587 228.329C112.823 226.55 125.728 224.845 137.19 229.58ZM375.25 191.522C375.071 191.304 374.888 191.09 374.701 190.879C374.878 191.098 375.061 191.313 375.25 191.522ZM355.108 196.044L354.372 195.295C355.305 193.991 355.233 192.031 354.208 190.801C354.44 190.355 355.125 190.377 355.484 190.723C355.843 191.069 355.956 191.6 356.034 192.099C356.254 193.508 356.232 195.204 355.108 196.044ZM354.467 212.769C355.598 210.492 355.852 207.772 355.16 205.317C354.649 205.313 354.143 205.089 353.789 204.711C354.322 207.351 354.215 210.124 353.479 212.712C353.784 212.543 354.182 212.566 354.467 212.769ZM331.433 205.318C331.008 205.375 330.757 205.818 330.942 206.205C332.102 208.631 335.883 216.06 339.72 218.369C340.015 218.375 340.306 218.197 340.441 217.928C336.658 215.457 332.989 207.652 332.114 205.699C331.996 205.436 331.72 205.28 331.433 205.318ZM354.385 229.327L352.831 227.811C353.714 227.48 354.794 227.822 355.341 228.607C355.888 229.391 355.855 230.549 355.264 231.299C355.021 231.606 354.685 231.851 354.304 231.914C354.012 231.963 353.714 231.904 353.423 231.845C352.259 231.61 351.074 231.368 350.035 230.781C348.995 230.193 348.107 229.196 347.943 227.991C349.633 229.413 351.762 230.279 353.943 230.432L354.385 229.327ZM348.18 231.389C343.856 232.217 339.588 233.357 335.419 234.798C339.003 234.9 342.551 236.066 345.526 238.118C349.344 240.752 353.861 242.309 358.456 242.577C353.554 243.834 348.082 242.448 344.316 238.995C342.499 237.329 340.048 236.535 337.619 236.331C335.19 236.128 332.753 236.469 330.34 236.826C333.809 233.434 338.64 232.026 343.265 230.733C344.965 230.258 347.134 229.934 348.18 231.389ZM342.95 241.282C338.263 243.575 334.177 247.146 331.227 251.528C329.878 253.532 328.743 255.765 328.48 258.184C328.106 261.617 329.509 264.962 330.88 268.117C333.853 274.954 336.9 281.912 341.764 287.494C349.301 296.145 360.11 300.408 370.82 304.632L370.821 304.633C373.62 305.737 376.413 306.838 379.138 308.015C416.248 324.032 444.296 356.63 465.517 391.708L465.7 392.009C468.455 396.566 471.327 401.315 475.815 404.049C452.865 361.364 419.471 322.541 375.395 304.264C373.496 303.477 371.565 302.718 369.629 301.958L369.628 301.958C360.062 298.201 350.353 294.387 343.557 286.698C339.537 282.149 336.851 276.551 334.349 270.974C332.546 266.954 330.772 262.686 331.128 258.276C331.704 251.139 337.541 245.813 342.95 241.282ZM220.936 438.42C222.515 447.092 224.506 455.717 227.603 463.947C230.447 471.508 234.217 478.703 238.795 485.309C222.12 466.901 217.23 440.463 215.383 415.414C213.908 395.404 213.915 375.28 215.403 355.271C209.737 385.549 208.587 417.017 215.08 447.119C221.573 477.222 236.038 505.927 258.35 526.601C259.293 527.475 258.404 529.252 257.16 529.523C255.916 529.795 254.681 529.12 253.581 528.465C230.252 514.587 206.745 498.353 193.957 474.008C193.42 472.985 193.119 471.342 194.197 470.985C209.042 492.797 228.749 511.109 251.378 524.117C222.403 495.335 208.526 453.171 207.413 411.827C206.299 370.482 216.886 329.664 231.012 290.922C232.832 285.931 234.842 280.765 238.723 277.221C217.397 327.558 211.117 384.471 220.936 438.42ZM494.378 419.911C491.456 420.646 488.293 420.324 485.569 419.016C491.522 423.326 496.936 428.416 501.637 434.124C498.286 433.342 495.177 431.5 492.843 428.913L497.692 438.152L489.485 430.731L492.167 438.627C478.199 427.018 466.967 412.351 455.766 397.724C442.084 379.858 428.448 362.051 409.926 349.949C390.25 337.092 366.86 331.925 344.029 326.986C345.525 325.986 346.4 324.086 346.202 322.266C333.62 335.048 323.537 350.403 316.718 367.163C313.876 374.15 311.599 381.363 309.327 388.566C306.368 397.941 303.399 407.362 301.879 417.092C299.748 430.734 300.513 444.656 301.283 458.449L302.972 488.69C303.052 490.129 304.103 492.128 305.269 491.322L303.703 460.159C303.133 448.812 302.564 437.415 303.627 426.105C304.948 412.048 308.769 398.366 313.096 384.959C319.496 365.129 327.52 344.956 342.563 330.868C343.999 329.523 346.231 329.82 348.137 330.216C365.643 333.854 383.006 338.818 399.037 346.894C415.067 354.97 429.78 366.296 440.292 381.099C455.511 402.528 472.625 422.543 491.354 440.818C492.883 440.261 493.917 438.533 493.707 436.884C494.778 438.635 496.804 439.723 498.818 439.629L498.994 435.407C500.354 436.541 502.48 436.569 503.869 435.473C501.142 430.35 497.134 425.952 492.334 422.815L495.74 422.593C497.063 421.045 495.178 418.822 493.491 417.706L473.656 404.587C479.641 410.858 486.684 416.067 494.378 419.911ZM86.7312 392.446C97.272 390.533 108.14 388.488 117.087 382.464C121.827 379.273 125.805 375.111 129.787 370.944C131.678 368.967 133.569 366.988 135.543 365.112C148.826 352.486 166.215 344.48 184.246 342.688C167.515 358.58 158.823 382.924 161.591 406.132C162.04 409.889 162.768 413.609 163.495 417.326C164.558 422.755 165.619 428.179 165.806 433.701C165.941 437.688 165.619 441.687 165.297 445.68C164.837 451.381 164.378 457.071 165.254 462.696C167.339 476.08 176.308 486.455 185.278 496.832L185.278 496.832C188.71 500.803 192.143 504.774 195.19 508.914C199.507 514.779 203.206 521.369 204.299 528.63C205.127 534.135 204.419 539.768 203.278 545.214C200.675 557.64 195.798 569.561 188.976 580.174C196.41 578.475 200.484 570.455 203.456 563.267C208.932 550.025 214.115 535.295 209.888 521.581C208.18 516.042 205.063 511.163 201.942 506.276L201.942 506.275L201.942 506.275L201.942 506.275L201.941 506.275L201.941 506.274L201.941 506.274L201.941 506.274L201.941 506.273L201.941 506.273L201.94 506.273L201.94 506.273C200.499 504.016 199.057 501.758 197.752 499.433C188.666 483.24 186.404 463.176 191.649 445.285C188.944 464.461 192.991 484.563 202.879 501.075C203.821 502.647 204.817 504.195 205.813 505.743C208.659 510.165 211.506 514.59 213.098 519.601C214.573 524.243 214.897 529.195 214.722 534.073C214.096 551.524 206.967 568.648 195.107 581.185C193.248 583.15 190.37 585.118 188.142 583.609C185.877 582.076 186.58 578.525 187.67 575.977C189.247 572.291 191.106 568.664 192.965 565.038C197.823 555.563 202.68 546.089 202.487 535.578C202.224 521.209 192.545 509.038 183.06 498.454L182.59 497.93C173.238 487.498 163.256 476.363 161.312 462.37C160.526 456.716 161.136 451.027 161.748 445.324C162.168 441.405 162.589 437.48 162.558 433.556C162.512 427.654 161.447 421.847 160.38 416.034L160.38 416.033C159.654 412.074 158.927 408.111 158.521 404.113C156.408 383.303 163.515 361.693 177.487 346.443C162.829 349.439 148.988 356.527 137.849 366.743C135.577 368.826 133.412 371.04 131.247 373.252L131.247 373.252C127.095 377.495 122.948 381.733 118.072 385.037C107.422 392.251 94.3382 394.338 81.7099 396.252C80.8565 395.124 82.0001 393.579 83.0592 392.652L116.53 363.368C106.85 367.981 96.1176 370.254 85.4465 369.953C86.9146 368.914 88.3948 367.887 89.8765 366.858C97.8071 361.352 105.776 355.82 112.115 348.502C119.638 339.817 124.653 327.909 122.164 316.578C119.675 305.247 107.744 296.002 96.9372 299.492C94.3472 300.328 92.02 301.777 89.6885 303.227C87.8419 304.376 85.9926 305.527 84.008 306.377C87.9982 290.453 104.757 281.332 120.621 278.92C128.288 277.755 136.057 277.689 143.824 277.623C152.131 277.553 160.435 277.482 168.608 276.067C160.179 281.368 150.12 280.992 139.989 280.613C135.184 280.434 130.364 280.254 125.693 280.678C111.324 281.983 97.6012 289.581 88.6576 301.183C97.2216 292.215 113.517 295.466 120.511 305.766C127.505 316.066 126.285 330.529 120.28 341.465C114.274 352.401 104.278 360.405 94.0049 367.232C110.032 365.013 125.081 356.114 134.979 343.004C122.241 362.493 105.748 379.394 86.7312 392.446ZM480.808 539.649C472.784 549.697 459.533 553.84 446.884 554.544C433.492 555.289 419.935 552.731 407.679 547.148C405.198 546.018 402.75 544.754 400.614 543.036C398.748 541.535 397.153 539.715 395.575 537.901C378.288 518.024 361.417 496.957 352.359 472C350.878 467.92 349.599 463.623 349.956 459.285C355.041 475.209 362.363 490.381 371.625 504.187C378.103 513.843 385.503 522.806 392.89 531.75C395.536 534.955 398.2 538.177 401.352 540.858C408.517 546.954 417.753 549.873 426.906 551.628C442.488 554.614 459.742 554.275 472.742 544.975C473.415 544.494 474.075 543.989 474.736 543.485C476.66 542.015 478.586 540.545 480.808 539.649ZM360.233 191.41C361.135 193.12 361.964 194.87 362.717 196.655C363.113 194.521 362.439 192.209 360.965 190.648L360.233 191.41ZM360.628 216.699C361.69 213.749 362.768 210.703 362.644 207.561C362.625 207.08 362.69 206.439 363.152 206.352C364.55 209.903 363.85 214.227 361.41 217.125L360.628 216.699ZM342.718 198.283C346.202 198.283 349.684 198.955 352.929 200.252C350.064 198.039 346.406 196.928 342.827 197.184C341.585 197.273 340.527 198.494 340.587 199.768C340.648 201.043 341.817 202.153 343.061 202.118C343.04 201.559 342.659 201.121 342.285 200.692C342.184 200.576 342.084 200.46 341.991 200.343C341.554 199.792 341.316 198.856 341.89 198.458C342.127 198.293 342.432 198.283 342.718 198.283ZM559.568 539.866C556.274 538.644 552.892 537.688 549.515 536.733L536.135 532.95C514.753 526.904 492.56 520.804 470.661 524.419C467.22 524.988 463.762 525.793 460.304 526.598C450.846 528.801 441.378 531.006 432.199 528.374C431.433 528.154 430.607 527.045 431.355 526.769C440.737 529.389 450.449 527.229 460.096 525.083C462.907 524.458 465.713 523.834 468.504 523.33C478.466 521.53 488.691 521.271 498.727 522.563C508.177 523.78 517.403 526.353 526.592 528.919L553.063 536.31C556.41 537.244 559.763 538.181 563.011 539.432C569.901 542.085 576.268 546.156 581.623 551.331C580.99 551.896 580.043 551.808 579.213 551.686C551.487 547.597 524.129 540.893 497.597 531.687C482.371 526.404 464.435 530.458 452.789 541.816C461.632 543.057 470.785 541.895 479.065 538.48C475.267 541.468 470.615 543.302 465.843 543.695C463.312 543.903 460.718 543.726 458.135 543.55L458.134 543.55C453.378 543.225 448.661 542.902 444.455 544.995L451.412 540.22C459.886 534.404 468.837 528.409 478.994 527.473C487.04 526.731 494.967 529.258 502.701 531.722C503.065 531.839 503.43 531.955 503.793 532.07C527.695 539.664 552.14 545.464 576.866 549.408C571.596 545.384 565.747 542.158 559.568 539.866ZM346.55 373.047C349.952 379.132 351.924 386.052 352.251 393.058C352.485 398.072 351.892 403.061 351.299 408.054L351.298 408.055C350.876 411.611 350.453 415.171 350.328 418.744C349.722 436.088 356.164 452.928 364.383 468.101C373.44 484.82 385.514 500.847 402.506 508.742C419.497 516.636 442.183 514.013 453.319 498.67C441.52 501.924 428.499 500.237 417.86 494.076C427.229 495.054 437.145 491.644 443.37 484.401C449.596 477.158 451.573 466.079 447.442 457.404C443.311 448.728 432.904 443.456 423.87 446.18C414.835 448.903 408.818 459.911 411.996 468.998C413.431 473.1 416.632 476.647 420.709 477.876C424.786 479.106 429.642 477.697 432.07 474.121C436.224 468.004 431.477 458.952 424.721 456.197C431.708 454.517 439.139 461.028 439.27 468.383C439.4 475.738 432.954 482.314 425.799 482.891C418.645 483.467 411.613 478.577 408.746 471.834C405.879 465.09 406.928 456.962 410.708 450.709C415.215 443.254 423.463 438.379 432.007 437.908C440.551 437.437 449.179 441.307 454.795 447.924C462.754 457.302 464.232 470.724 463.637 483.139C462.84 499.735 477.916 515.271 494.11 514.542C507.9 513.921 521.836 517.112 534.058 523.689C531.113 514.64 521.519 509.908 512.584 507.241C511.264 506.847 509.925 506.47 508.581 506.091L508.581 506.091L508.581 506.091C500.832 503.906 492.911 501.673 487.312 495.917C481.598 490.043 479.587 481.917 477.555 473.709L477.555 473.709C476.361 468.884 475.159 464.03 473.195 459.589C475.203 475.094 478.361 492.556 491.157 501.076C495.997 504.299 501.648 505.787 507.277 507.269L507.28 507.27C508.803 507.671 510.325 508.072 511.828 508.506C518.888 510.547 526.201 513.817 529.977 520.263C522.07 514.811 512.248 514.147 502.589 513.495L502.588 513.495H502.588C500.5 513.354 498.42 513.213 496.369 513.025C484.826 511.966 471.793 507.793 467.411 496.795C465.489 491.97 465.612 486.675 465.735 481.406V481.405V481.403C465.771 479.866 465.806 478.332 465.791 476.813C465.616 459.21 455.93 440.1 439.189 436.178C427.543 433.45 414.479 439.369 408.609 450.034C404.508 457.483 403.975 467.136 408.114 474.564C412.254 481.991 421.292 486.494 429.364 484.326C437.436 482.159 443.281 472.877 441.069 464.629C438.858 456.381 428.263 451.544 421.172 456.053C424.597 457.353 427.949 459.25 430.104 462.273C432.259 465.295 432.948 469.631 431.021 472.812C427.547 478.545 418.054 476.535 414.693 470.732C410.586 463.641 413.806 453.443 420.87 449.498C427.935 445.554 437.486 447.841 442.733 454.091C447.981 460.341 448.932 469.769 445.804 477.366C442.783 484.705 436.158 490.372 428.573 492.105C420.989 493.839 412.643 491.593 406.866 486.265C405.525 488.216 407.6 490.71 409.534 492.039C419.768 499.07 431.996 503.011 444.314 503.249C431.68 513.3 412.992 512.109 399.063 504.053C385.135 495.998 375.182 482.32 366.991 468.24C359.372 455.141 352.762 440.805 352.338 425.561C352.185 420.04 352.849 414.553 353.514 409.062C354.023 404.854 354.533 400.644 354.675 396.414C355.003 386.664 352.933 376.052 345.777 369.62C324.087 394.063 315.189 429.788 322.795 461.898C326.725 478.488 334.661 493.782 343.348 508.348C343.962 509.378 344.581 510.407 345.201 511.438L345.204 511.443C350.488 520.225 355.821 529.091 358.477 539.011C361.445 550.097 360.482 563.034 352.989 571.587C356.28 557.473 353.217 541.939 344.837 530.243C341.885 526.123 338.351 522.507 334.815 518.889L334.815 518.888L334.814 518.888C331.764 515.767 328.713 512.645 326.033 509.197C316.346 496.734 312.089 480.863 308.063 465.472C309.523 487.233 319.712 508.244 335.755 522.574C350.813 536.023 356.48 559.442 349.3 578.546C357.697 570.871 362.536 559.272 362.15 547.747C361.666 533.3 353.763 520.821 345.939 508.469C343.778 505.057 341.623 501.655 339.632 498.224C328.438 478.929 321.873 456.566 322.545 434.127C323.217 411.689 331.415 389.272 346.55 373.047Z" fill="#00160A"/>
</svg>
