<svg width="93" height="29" viewBox="0 0 93 29" fill="none" xmlns="http://www.w3.org/2000/svg">
<path d="M14.1573 0.287109C6.84808 0.287109 0.922852 6.21234 0.922852 13.5216H27.3918C27.3918 6.21234 21.4665 0.287109 14.1573 0.287109Z" fill="white"/>
<path d="M25.9443 15.0527C25.9443 21.5521 20.6567 26.8395 14.1573 26.8395C7.65788 26.8395 2.37025 21.5521 2.37025 15.0527H0.922607C0.922607 22.3502 6.85955 28.2872 14.1571 28.2872C21.4546 28.2872 27.3915 22.3502 27.3915 15.0527H25.9443Z" fill="white"/>
<path d="M14.1573 24.9748C19.6283 24.9748 24.0793 20.5235 24.0793 15.0527H22.6317C22.6317 19.7257 18.83 23.5274 14.157 23.5274C9.48408 23.5274 5.68239 19.7257 5.68239 15.0527H4.23474C4.23499 20.5235 8.68622 24.9748 14.1573 24.9748Z" fill="white"/>
<path d="M42.3917 1.96711V1.68711H47.3757V1.96711H46.0037V21.0071H47.3757V21.2871H42.3917V21.0071H43.6797V1.96711H42.3917Z" fill="white"/>
<path d="M61.2381 21.2871C60.4728 21.2871 59.8848 21.1191 59.4741 20.7831C59.0821 20.4471 58.8768 20.1111 58.8581 19.7751L58.8301 19.2991V10.5071C58.8301 9.03244 58.4475 8.08978 57.6821 7.67911C57.2901 7.49244 56.8048 7.39911 56.2261 7.39911C55.0315 7.39911 53.9581 7.87511 53.0061 8.82711C52.0541 9.76044 51.5781 10.6004 51.5781 11.3471V21.2871H49.6181V7.28711H51.5781V10.4791C51.8955 9.67644 52.4835 8.92978 53.3421 8.23911C54.2008 7.52978 55.1435 7.17511 56.1701 7.17511C57.1968 7.17511 58.0275 7.27778 58.6621 7.48311C59.3155 7.66978 59.7915 7.94044 60.0901 8.29511C60.5568 8.87378 60.7901 9.62044 60.7901 10.5351V19.2991C60.7901 19.8404 60.8928 20.2604 61.0981 20.5591C61.3221 20.8391 61.5461 20.9884 61.7701 21.0071L62.0781 21.0631H62.9461V21.2871H61.2381Z" fill="white"/>
<path d="M66.5964 0.287109V14.2311L72.7564 7.28711H73.0364L68.4724 12.4391L74.4924 21.2871H72.5324L67.3524 13.6711L66.5964 14.5391V21.2871H64.6364V0.287109H66.5964Z" fill="white"/>
<path d="M80.1351 21.2871C78.4924 21.2871 77.4564 20.8578 77.0271 19.9991C76.9337 19.8124 76.8871 19.6444 76.8871 19.4951V0.315111H78.8471V19.2991C78.8471 19.8404 78.9497 20.2604 79.1551 20.5591C79.3791 20.8391 79.6031 20.9884 79.8271 21.0071L80.1351 21.0631H81.0031V21.2871H80.1351Z" fill="white"/>
<path d="M84.8903 26.2991C84.2929 27.6244 83.5556 28.2871 82.6783 28.2871C82.2863 28.2871 81.8289 28.2218 81.3063 28.0911V27.8671C81.7356 27.9791 82.1183 28.0351 82.4543 28.0351C83.4062 28.0351 84.1343 27.4564 84.6382 26.2991L86.9902 21.2871H86.9622L81.7542 7.28711H83.7142L88.0542 18.9631L92.3382 10.0871C92.5622 9.69511 92.6743 9.22844 92.6743 8.68711C92.6743 8.14578 92.5249 7.73511 92.2262 7.45511L92.3942 7.28711C92.4689 7.32444 92.5622 7.43644 92.6743 7.62311C92.8049 7.80978 92.8796 7.97778 92.8983 8.12711C92.9356 8.27644 92.9543 8.41644 92.9543 8.54711C92.9543 9.05111 92.8422 9.56444 92.6182 10.0871L87.2423 21.2871L84.8903 26.2991Z" fill="white"/>
</svg>
