<svg width="211" height="29" viewBox="0 0 211 29" fill="none" xmlns="http://www.w3.org/2000/svg">
<path d="M16.6416 14.3516C16.6416 19.0943 19.0262 23.2888 22.6579 25.8046C26.2672 23.2503 28.6262 19.0453 28.6262 14.287C28.6262 9.56881 26.3071 5.39453 22.7491 2.83398C19.0655 5.34259 16.6416 9.56907 16.6416 14.3516Z" fill="white"/>
<path d="M14.6992 14.352C14.6992 9.21314 17.1567 4.63921 20.956 1.7374C19.0261 0.745641 16.8399 0.182617 14.521 0.182617C6.73118 0.182617 0.416199 6.49758 0.416199 14.2874C0.416199 22.0772 6.73118 28.3922 14.521 28.3922C16.8 28.3922 18.9507 27.8483 20.8561 26.8883C17.1138 23.983 14.6992 19.4456 14.6992 14.352Z" fill="white"/>
<path d="M30.568 28.2018C22.931 28.2018 16.718 21.9888 16.718 14.3519C16.718 6.71492 22.931 0.501953 30.568 0.501953C38.2049 0.501953 44.4181 6.71492 44.4181 14.3519C44.4181 21.9888 38.2049 28.2018 30.568 28.2018ZM30.568 2.44403C24.0022 2.44403 18.6601 7.78608 18.6601 14.3519C18.6601 20.918 24.0022 26.2595 30.568 26.2595C37.1338 26.2595 42.4758 20.918 42.4758 14.3519C42.4758 7.78608 37.1338 2.44403 30.568 2.44403Z" fill="white"/>
<path d="M60.9221 27.9128C59.9195 27.9128 59.4182 27.4449 59.4182 26.509V2.47695C59.4182 1.54112 59.9195 1.07321 60.9221 1.07321H79.3557C80.4299 1.07321 80.967 1.47873 80.967 2.28978V4.49834C80.967 5.30939 80.4299 5.71492 79.3557 5.71492H65.6916V11.6668H78.217C79.2912 11.6668 79.8283 12.0723 79.8283 12.8834V15.0919C79.8283 15.903 79.2912 16.3085 78.217 16.3085H65.6916V23.2711H80.0432C81.1174 23.2711 81.6545 23.6766 81.6545 24.4876V26.6962C81.6545 27.5073 81.1174 27.9128 80.0432 27.9128H60.9221Z" fill="white"/>
<path d="M84.9201 9.72026C84.562 8.747 84.7984 8.26037 85.6291 8.26037H89.4748C90.148 8.26037 90.5777 8.57855 90.7639 9.21492L94.0939 20.1828C94.2801 20.7942 94.4305 21.3994 94.5451 21.9983C94.674 22.5973 94.7528 23.0839 94.7814 23.4582H94.9103C94.939 23.0839 95.0106 22.5973 95.1252 21.9983C95.2541 21.3994 95.4116 20.7942 95.5978 20.1828L98.9279 9.21492C99.1141 8.57855 99.5438 8.26037 100.217 8.26037H104.063C104.893 8.26037 105.13 8.747 104.772 9.72026L98.5412 26.6588C98.2404 27.4948 97.7176 27.9128 96.9728 27.9128H92.7189C91.9741 27.9128 91.4514 27.4948 91.1506 26.6588L84.9201 9.72026Z" fill="white"/>
<path d="M106.856 18.0866C106.856 14.9048 107.794 12.4092 109.67 10.5999C111.561 8.79067 114.368 7.88604 118.092 7.88604C121.816 7.88604 124.616 8.79067 126.492 10.5999C128.383 12.4092 129.328 14.9048 129.328 18.0866C129.328 21.2684 128.383 23.7639 126.492 25.5732C124.616 27.3825 121.816 28.2871 118.092 28.2871C114.368 28.2871 111.561 27.3825 109.67 25.5732C107.794 23.7639 106.856 21.2684 106.856 18.0866ZM113.215 18.0866C113.215 20.4573 113.63 22.1418 114.461 23.1401C115.306 24.1258 116.516 24.6187 118.092 24.6187C119.667 24.6187 120.871 24.1258 121.701 23.1401C122.546 22.1418 122.969 20.4573 122.969 18.0866C122.969 15.7158 122.546 14.0376 121.701 13.0518C120.871 12.0536 119.667 11.5545 118.092 11.5545C116.516 11.5545 115.306 12.0536 114.461 13.0518C113.63 14.0376 113.215 15.7158 113.215 18.0866Z" fill="white"/>
<path d="M135.258 27.9128C134.399 27.9128 133.969 27.5384 133.969 26.7898V1.4101C133.969 0.661441 134.399 0.287109 135.258 0.287109H138.695C139.555 0.287109 139.985 0.661441 139.985 1.4101V15.1668C139.985 15.6659 139.956 16.165 139.899 16.6641H139.985L146.795 9.02775C147.253 8.51616 147.812 8.26037 148.471 8.26037H151.994C153.312 8.26037 153.534 8.72205 152.66 9.6454L146.172 16.4769L153.692 26.5278C154.379 27.4511 154.157 27.9128 153.026 27.9128H149.352C148.636 27.9128 148.048 27.5884 147.59 26.9395L142.713 20.108L139.985 22.9716V26.7898C139.985 27.5384 139.555 27.9128 138.695 27.9128H135.258Z" fill="white"/>
<path d="M156.742 18.0866C156.742 14.9297 157.645 12.4404 159.449 10.6187C161.268 8.79691 163.832 7.88604 167.141 7.88604C170.979 7.88604 173.83 8.747 175.692 10.4689C177.554 12.1909 178.485 14.9609 178.485 18.7791C178.485 19.5278 178.084 19.9021 177.281 19.9021H163.102C163.331 21.9734 163.918 23.2773 164.863 23.8138C165.809 24.3504 166.904 24.6187 168.151 24.6187C169.339 24.6187 170.249 24.4814 170.879 24.2069C171.509 23.9324 172.039 23.5581 172.469 23.0839C172.956 22.5349 173.557 22.4475 174.274 22.8219L176.422 23.9636C177.267 24.4128 177.389 24.9493 176.787 25.5732C175.914 26.4841 174.89 27.1641 173.715 27.6133C172.541 28.0625 170.686 28.2871 168.151 28.2871C164.04 28.2871 161.111 27.3762 159.363 25.5545C157.616 23.7327 156.742 21.2434 156.742 18.0866ZM163.123 16.1588H172.469C172.469 14.8112 172.082 13.7131 171.309 12.8646C170.535 12.0037 169.304 11.5732 167.613 11.5732C166.267 11.5732 165.2 11.985 164.412 12.8085C163.625 13.6196 163.195 14.7363 163.123 16.1588Z" fill="white"/>
<path d="M183.813 27.9128C182.438 27.9128 182.166 27.3762 182.996 26.3032L192.514 14.0625L183.77 2.68283C182.939 1.60975 183.211 1.07321 184.586 1.07321H188.926C189.685 1.07321 190.33 1.4413 190.86 2.17748L196.725 10.263L202.59 2.17748C203.12 1.4413 203.765 1.07321 204.524 1.07321H208.863C210.238 1.07321 210.511 1.60975 209.68 2.68283L200.914 14.0625L210.453 26.3032C211.284 27.3762 211.012 27.9128 209.637 27.9128H205.233C204.488 27.9128 203.843 27.5447 203.299 26.8085L196.725 17.862L190.151 26.8085C189.606 27.5447 188.962 27.9128 188.217 27.9128H183.813Z" fill="white"/>
</svg>
