<svg width="195" height="62" viewBox="0 0 195 62" fill="none" xmlns="http://www.w3.org/2000/svg">
<path d="M10.3 33.9C10.3 36.1333 10.75 38.0667 11.65 39.7C12.55 41.3333 13.8333 42.6 15.5 43.5C17.2 44.3667 19.2167 44.8 21.55 44.8C23.9167 44.8 25.9333 44.3667 27.6 43.5C29.2667 42.6 30.55 41.3333 31.45 39.7C32.35 38.0667 32.8 36.1333 32.8 33.9V12.5H39.4V34.15C39.4 37.45 38.65 40.35 37.15 42.85C35.65 45.3167 33.5667 47.25 30.9 48.65C28.2333 50.0167 25.1167 50.7 21.55 50.7C18.0167 50.7 14.9 50.0167 12.2 48.65C9.53333 47.25 7.45 45.3167 5.95 42.85C4.45 40.35 3.7 37.45 3.7 34.15V12.5H10.3V33.9ZM44.9223 21.7H51.4223L53.1223 31.9V50H46.6223V30.95L44.9223 21.7ZM64.3723 21C67.0389 21 69.3056 21.5333 71.1723 22.6C73.0389 23.6667 74.4556 25.2 75.4223 27.2C76.4223 29.1667 76.9223 31.55 76.9223 34.35V50H70.4223V35.4C70.4223 32.4333 69.7223 30.2 68.3223 28.7C66.9556 27.1667 64.9389 26.4 62.2723 26.4C60.4389 26.4 58.8223 26.8167 57.4223 27.65C56.0556 28.45 54.9889 29.5833 54.2223 31.05C53.4889 32.5167 53.1223 34.2333 53.1223 36.2L50.8223 34.95C51.1223 32.0167 51.8889 29.5167 53.1223 27.45C54.3556 25.3833 55.9389 23.8 57.8723 22.7C59.8056 21.5667 61.9723 21 64.3723 21ZM109.93 50L108.83 39.25L110.28 35.9L108.88 32.05L110.98 11.5H117.68L115.13 35.45L116.58 50H109.93ZM111.83 35.85C111.197 38.8167 110.147 41.4167 108.68 43.65C107.214 45.8833 105.397 47.6167 103.23 48.85C101.097 50.0833 98.7138 50.7 96.0805 50.7C93.3138 50.7 90.8638 50.0833 88.7305 48.85C86.5971 47.5833 84.9305 45.8333 83.7305 43.6C82.5305 41.3667 81.9305 38.7833 81.9305 35.85C81.9305 32.8833 82.5305 30.3 83.7305 28.1C84.9305 25.8667 86.5971 24.1333 88.7305 22.9C90.8638 21.6333 93.3138 21 96.0805 21C98.7138 21 101.097 21.6167 103.23 22.85C105.397 24.0833 107.214 25.8167 108.68 28.05C110.18 30.25 111.23 32.85 111.83 35.85ZM88.5305 35.85C88.5305 37.75 88.9138 39.4333 89.6805 40.9C90.4805 42.3333 91.5638 43.4667 92.9305 44.3C94.2971 45.1 95.8638 45.5 97.6305 45.5C99.4305 45.5 101.097 45.1 102.63 44.3C104.164 43.4667 105.514 42.3333 106.68 40.9C107.88 39.4333 108.83 37.75 109.53 35.85C108.83 33.95 107.88 32.2833 106.68 30.85C105.514 29.3833 104.164 28.25 102.63 27.45C101.097 26.6167 99.4305 26.2 97.6305 26.2C95.8638 26.2 94.2971 26.6167 92.9305 27.45C91.5638 28.25 90.4805 29.3833 89.6805 30.85C88.9138 32.2833 88.5305 33.95 88.5305 35.85ZM138.285 50.7C134.985 50.7 132.051 50.0833 129.485 48.85C126.918 47.5833 124.901 45.8333 123.435 43.6C121.968 41.3667 121.235 38.7667 121.235 35.8C121.235 32.8667 121.918 30.3 123.285 28.1C124.685 25.8667 126.601 24.1333 129.035 22.9C131.501 21.6333 134.318 21 137.485 21C140.651 21 143.385 21.7167 145.685 23.15C148.018 24.55 149.818 26.5333 151.085 29.1C152.351 31.6667 152.985 34.6833 152.985 38.15H126.335V33.2H149.735L146.485 35.05C146.385 33.1833 145.935 31.5833 145.135 30.25C144.368 28.9167 143.318 27.9 141.985 27.2C140.685 26.4667 139.135 26.1 137.335 26.1C135.435 26.1 133.768 26.4833 132.335 27.25C130.935 28.0167 129.835 29.1 129.035 30.5C128.235 31.8667 127.835 33.5 127.835 35.4C127.835 37.5 128.301 39.3167 129.235 40.85C130.201 42.3833 131.551 43.5667 133.285 44.4C135.051 45.2 137.135 45.6 139.535 45.6C141.701 45.6 143.918 45.2667 146.185 44.6C148.451 43.9 150.451 42.9333 152.185 41.7V46.4C150.451 47.7333 148.335 48.7833 145.835 49.55C143.368 50.3167 140.851 50.7 138.285 50.7ZM184.833 50L183.733 39.25L185.183 35.9L183.783 32.05L185.883 11.5H192.583L190.033 35.45L191.483 50H184.833ZM186.733 35.85C186.099 38.8167 185.049 41.4167 183.583 43.65C182.116 45.8833 180.299 47.6167 178.133 48.85C175.999 50.0833 173.616 50.7 170.983 50.7C168.216 50.7 165.766 50.0833 163.633 48.85C161.499 47.5833 159.833 45.8333 158.633 43.6C157.433 41.3667 156.833 38.7833 156.833 35.85C156.833 32.8833 157.433 30.3 158.633 28.1C159.833 25.8667 161.499 24.1333 163.633 22.9C165.766 21.6333 168.216 21 170.983 21C173.616 21 175.999 21.6167 178.133 22.85C180.299 24.0833 182.116 25.8167 183.583 28.05C185.083 30.25 186.133 32.85 186.733 35.85ZM163.433 35.85C163.433 37.75 163.816 39.4333 164.583 40.9C165.383 42.3333 166.466 43.4667 167.833 44.3C169.199 45.1 170.766 45.5 172.533 45.5C174.333 45.5 175.999 45.1 177.533 44.3C179.066 43.4667 180.416 42.3333 181.583 40.9C182.783 39.4333 183.733 37.75 184.433 35.85C183.733 33.95 182.783 32.2833 181.583 30.85C180.416 29.3833 179.066 28.25 177.533 27.45C175.999 26.6167 174.333 26.2 172.533 26.2C170.766 26.2 169.199 26.6167 167.833 27.45C166.466 28.25 165.383 29.3833 164.583 30.85C163.816 32.2833 163.433 33.95 163.433 35.85Z" fill="white"/>
<path fill-rule="evenodd" clip-rule="evenodd" d="M27.1505 25.1699C26.3558 24.7684 25.5195 24.2348 24.8746 23.4623C24.1087 22.5447 23.7972 21.363 23.588 20.119C23.3195 18.5209 23.2122 16.8185 22.8865 15.2178C22.7659 14.6233 22.5339 14.3986 22.4343 14.2989C22.1827 14.047 21.9283 13.9797 21.689 14.005C21.4054 14.0341 21.0158 14.1863 20.7595 14.8603C20.723 14.9568 20.6755 15.1038 20.6435 15.3052C20.6202 15.4529 20.6052 15.9145 20.5805 16.1049C20.5189 16.5737 20.4672 17.0426 20.4188 17.514C20.2576 19.083 20.1649 20.4156 19.6556 21.857C18.9646 23.8139 18.2722 25.0112 17.3332 25.5415C16.4252 26.0544 15.3396 25.9579 13.9525 25.5558C13.8205 25.5105 13.6899 25.4716 13.5606 25.4399C12.9491 25.2884 12.3645 25.8575 12.2443 26.7214C12.1242 27.5845 12.5129 28.4257 13.119 28.6154C13.2455 28.6549 13.3702 28.6925 13.4935 28.7268C15.3679 29.3847 17.5378 31.7327 18.7988 33.7886C19.1875 34.4226 19.7566 36.1949 20.3371 37.3255C20.7655 38.1595 21.2469 38.7093 21.6511 38.9035C21.9219 39.0343 22.1503 39.0143 22.3389 38.9482C22.6129 38.8524 22.8404 38.6419 23.0148 38.3071C23.1098 38.1239 23.198 37.8785 23.24 37.5651C23.2601 37.4142 23.2624 37.0309 23.2619 36.8573C23.3802 36.2804 23.525 35.717 23.6305 35.1348C23.8822 33.7459 24.3759 32.8665 24.9623 31.7048C25.5109 30.6176 26.1 29.9345 26.9637 29.3892C27.076 29.3504 27.9826 29.0357 28.3028 28.855C28.7705 28.5902 28.9934 28.1466 29.0742 27.9076C29.2117 27.5023 29.2259 27.1481 29.1984 26.8528C29.1578 26.417 29.0199 26.044 28.7751 25.7429C28.6234 25.5558 28.3969 25.3738 28.0936 25.2851C27.8593 25.2158 27.2377 25.1757 27.1505 25.1699ZM21.8319 22.906C21.7899 23.0388 21.7452 23.1722 21.6977 23.3069C20.6855 26.1729 19.5538 27.773 18.1781 28.5494L18.132 28.5746C19.0523 29.5433 19.8854 30.626 20.5221 31.664C20.7842 32.0914 21.1313 32.9792 21.5063 33.8896C21.847 32.3194 22.4042 31.2095 23.1048 29.8205C23.6401 28.7605 24.201 27.9627 24.8902 27.3126C24.3553 26.9234 23.8452 26.4675 23.4008 25.9353C22.6609 25.0488 22.1717 24.0217 21.8319 22.906Z" fill="#FF4A3B"/>
</svg>
