<svg width="20" height="20" viewBox="0 0 20 20" fill="none" xmlns="http://www.w3.org/2000/svg">
<path d="M2.17773 8.42188C2.17773 12.6541 9.42832 19.0315 9.73691 19.301C9.80981 19.3646 9.90327 19.3996 10 19.3996C10.0967 19.3996 10.1902 19.3646 10.2631 19.301C10.5717 19.0315 17.8223 12.6541 17.8223 8.42188C17.8223 6.34728 16.9981 4.35766 15.5312 2.8907C14.0642 1.42374 12.0746 0.599609 10 0.599609C7.92541 0.599609 5.93578 1.42374 4.46882 2.8907C3.00186 4.35766 2.17773 6.34728 2.17773 8.42188ZM10 1.39961C11.8618 1.40172 13.6467 2.14224 14.9632 3.45872C16.2796 4.77519 17.0202 6.5601 17.0223 8.42188C17.0223 11.8676 11.3061 17.2723 10 18.462C8.69395 17.2723 2.97773 11.8676 2.97773 8.42188C2.97985 6.5601 3.72037 4.77519 5.03684 3.45872C6.35331 2.14224 8.13823 1.40172 10 1.39961Z" fill="white"/>
<path d="M10 12.9554C10.9142 12.9554 11.8078 12.6843 12.5679 12.1764C13.3281 11.6685 13.9205 10.9466 14.2703 10.102C14.6202 9.25738 14.7117 8.32801 14.5333 7.4314C14.355 6.53478 13.9148 5.71118 13.2684 5.06476C12.6219 4.41833 11.7983 3.97811 10.9017 3.79976C10.0051 3.62141 9.07572 3.71294 8.23113 4.06278C7.38653 4.41261 6.66464 5.00505 6.15674 5.76516C5.64884 6.52527 5.37774 7.41893 5.37773 8.33311C5.37913 9.55858 5.86657 10.7335 6.73311 11.6C7.59965 12.4665 8.77453 12.954 10 12.9554ZM10 4.51094C10.756 4.51095 11.4949 4.73513 12.1235 5.15513C12.7521 5.57513 13.242 6.17208 13.5312 6.87051C13.8205 7.56893 13.8962 8.33745 13.7487 9.07889C13.6012 9.82032 13.2372 10.5014 12.7026 11.0359C12.1681 11.5705 11.487 11.9345 10.7456 12.0819C10.0041 12.2294 9.23562 12.1537 8.5372 11.8644C7.83879 11.5751 7.24185 11.0852 6.82186 10.4566C6.40188 9.82806 6.17772 9.08907 6.17773 8.33311C6.17889 7.31975 6.58197 6.34822 7.29854 5.63168C8.0151 4.91513 8.98663 4.51208 10 4.51094Z" fill="white"/>
</svg>
