<svg width="100" height="98" viewBox="0 0 100 98" fill="none" xmlns="http://www.w3.org/2000/svg">
<path d="M19.5393 95.168C22.123 97.0722 25.1227 97.9912 28.1005 97.9912C32.582 97.9912 37.0048 95.9093 39.8511 91.9967C39.8593 91.9884 39.867 91.9797 39.8743 91.9706C39.8812 91.9614 39.888 91.9523 39.8945 91.9431L39.9043 91.9287C39.9112 91.9192 39.9177 91.9096 39.9241 91.9004L49.9962 77.8446L60.0683 91.9004C60.0782 91.9157 60.0885 91.9274 60.0984 91.9405C60.1031 91.9466 60.1074 91.9527 60.1121 91.9597C64.8563 98.5174 73.9722 99.9621 80.4606 95.1754C86.9564 90.3891 88.4087 81.1344 83.7229 74.5253L83.7126 74.5087C83.704 74.4948 83.6971 74.4843 83.6864 74.4734L73.6362 60.4098L89.9195 55.0307C97.5684 52.504 101.772 44.1239 99.2834 36.3584C96.795 28.5933 88.5473 24.3255 80.8911 26.8448L64.6083 32.2019L64.601 14.8117C64.5932 6.64631 58.0464 0 50.0035 0C41.9606 0 35.4138 6.64631 35.4065 14.8191L35.3919 32.1945L19.1087 26.8373C19.1023 26.8373 19.0944 26.8359 19.0865 26.8336C19.0763 26.8308 19.0658 26.8266 19.0576 26.8225C11.416 24.3329 3.19776 28.6007 0.716252 36.3514C-1.7653 44.1017 2.40956 52.4522 10.0219 55.0011C10.029 55.0032 10.0353 55.0058 10.0413 55.0085L10.0682 55.0189L10.0804 55.0233L26.3562 60.4024L16.306 74.466C16.3023 74.4734 16.2969 74.4808 16.2915 74.4882C16.2859 74.4956 16.2805 74.503 16.2769 74.5105C11.5838 81.1196 13.0436 90.3816 19.5393 95.168Z" fill="#2F80ED"/>
<path fill-rule="evenodd" clip-rule="evenodd" d="M50.6016 48.9928C50.341 53.9739 46.1516 57.9421 41 58V39C46.1516 39.058 50.341 43.026 50.6016 48.0072C50.8588 43.0917 54.9418 39.1628 60 39.0043V57.9957C54.9418 57.8373 50.8588 53.9084 50.6016 48.9928Z" fill="#F2C94C"/>
</svg>
