<svg width="253" height="253" viewBox="0 0 253 253" fill="none" xmlns="http://www.w3.org/2000/svg">
<g clip-path="url(#clip0_402_1050)">
<path fill-rule="evenodd" clip-rule="evenodd" d="M62.1929 56.0199C61.1155 74.9324 69.7136 95.9026 83.4333 114.864C103.936 143.192 135.842 167.038 163.517 172.891C164.089 173.004 164.65 172.637 164.769 172.074C164.891 171.498 164.529 170.945 163.952 170.822C136.708 165.057 105.331 141.522 85.1474 113.62C71.7352 95.0908 63.246 74.6276 64.3076 56.1405C64.3434 55.5537 63.8974 55.0586 63.3106 55.0229C62.7376 54.9911 62.2287 55.4331 62.1929 56.0199Z" fill="#FF4A3B"/>
<path fill-rule="evenodd" clip-rule="evenodd" d="M193.065 188.848C177.207 184.638 163.712 179.336 146.383 181.41C145.801 181.487 145.381 182.007 145.459 182.59C145.522 183.168 146.051 183.583 146.625 183.51C165.692 181.232 180.039 188.079 198.166 192.313C199.145 192.537 199.496 191.87 199.566 191.704C199.675 191.459 199.767 191.038 199.404 190.59C199.333 190.502 199.168 190.349 198.907 190.169C198.399 189.835 197.309 189.243 196.848 188.93C195.523 188.016 194.229 187.073 192.904 186.159C189.116 183.546 185.368 180.899 181.817 177.981C168.518 167.085 157.574 158.261 155.397 140.597C155.328 140.009 154.804 139.604 154.217 139.672C153.643 139.745 153.229 140.274 153.301 140.847C155.548 159.122 166.726 168.35 180.476 179.622C184.077 182.57 187.872 185.26 191.697 187.899C192.159 188.212 192.612 188.53 193.065 188.848Z" fill="#FF4A3B"/>
</g>
<defs>
<clipPath id="clip0_402_1050">
<rect width="186" height="186" fill="white" transform="translate(0 89.6875) rotate(-28.8287)"/>
</clipPath>
</defs>
</svg>
