<svg width="1952" height="119" viewBox="0 0 1952 119" fill="none" xmlns="http://www.w3.org/2000/svg">
<path d="M-117.15 110.824C-135.85 110.824 -149.7 105.524 -158.7 94.9236C-161.9 91.1236 -164.5 86.0736 -166.5 79.7736C-168.5 73.4736 -169.5 65.8236 -169.5 56.8236C-169.5 47.8236 -168.05 39.7736 -165.15 32.6736C-162.15 25.4736 -158.1 19.9236 -153 16.0236C-143.1 8.72363 -131.15 5.07363 -117.15 5.07363C-113.15 5.07363 -109.25 5.42363 -105.45 6.12363C-101.65 6.72363 -98.8 7.37363 -96.9 8.07362L-94.2 9.12363L-94.65 10.6236C-101.45 7.92363 -108.95 6.57363 -117.15 6.57363C-127.75 6.57363 -136.6 10.0236 -143.7 16.9236C-149.1 22.0236 -152.9 29.5236 -155.1 39.4236C-156.4 45.0236 -157.05 51.8736 -157.05 59.9736C-157.05 68.0736 -155.9 75.5736 -153.6 82.4736C-151.3 89.2736 -148.7 94.3236 -145.8 97.6236C-142.8 100.924 -139.2 103.574 -135 105.574C-130.8 107.474 -127.45 108.574 -124.95 108.874C-122.45 109.174 -119.45 109.324 -115.95 109.324C-112.35 109.324 -108.3 108.974 -103.8 108.274C-99.3 107.574 -95.9 106.924 -93.6 106.324L-90.15 105.274L-89.7 106.774C-97.3 109.474 -106.45 110.824 -117.15 110.824ZM-43.9219 6.42363C-32.3219 5.62363 -22.0719 5.22363 -13.1719 5.22363C11.5281 5.22363 23.8781 13.4736 23.8781 29.9736C23.8781 36.9736 22.1781 43.2236 18.7781 48.7236C15.3781 54.2236 9.52813 57.8736 1.22813 59.6736L31.2281 110.224H17.2781L-12.1219 60.5736H-31.4719V110.224H-43.9219V6.42363ZM-13.1719 6.72362C-18.9719 6.72362 -25.0719 7.07363 -31.4719 7.77363V59.0736H-9.27187C4.82813 58.4736 11.8781 48.8736 11.8781 30.2736C11.8781 22.6736 9.77813 16.8736 5.57813 12.8736C1.37813 8.77362 -4.87187 6.72362 -13.1719 6.72362ZM135.866 5.22363V6.72362H88.616V51.7236H132.416V53.2236H88.616V108.724H139.166V110.224H76.166V5.22363H135.866ZM180.775 110.224H178.975L223.825 5.22363L225.475 4.47363L263.275 110.224H250.525L238.825 77.2236H195.025L180.775 110.224ZM219.175 21.4236L195.625 75.7236H238.375L219.175 21.4236ZM330.138 110.224H317.688V6.72362H291.738V5.22363H356.238V6.72362H330.138V110.224ZM401.273 6.72362V5.22363H427.973V6.72362H420.623V108.724H427.973V110.224H401.273V108.724H408.173V6.72362H401.273ZM549.677 5.22363C551.577 7.12363 552.527 9.57363 552.527 12.5736C552.527 15.0736 551.977 17.6236 550.877 20.2236L512.477 110.224L510.827 110.974L473.027 5.22363H485.777L517.127 94.0236L549.077 20.2236C550.177 17.7236 550.727 15.1236 550.727 12.4236C550.727 9.72363 549.977 7.62363 548.477 6.12363L549.677 5.22363ZM657.204 5.22363V6.72362H609.954V51.7236H653.754V53.2236H609.954V108.724H660.504V110.224H597.504V5.22363H657.204Z" fill="white"/>
<path fill-rule="evenodd" clip-rule="evenodd" d="M773 118.724C772.882 86.1789 746.512 59.833 714 59.833C746.585 59.833 773 33.3685 773 0.723633C773.117 33.2684 799.488 59.6143 832 59.6143C799.415 59.6143 773 86.0788 773 118.724Z" fill="#4F4F4F"/>
<path d="M902.5 5.37362C906.9 5.17363 911.2 5.07363 915.4 5.07363C919.7 5.07363 924.2 5.52363 928.9 6.42363C933.7 7.32363 938.4 9.02363 943 11.5236C947.7 13.9236 951.65 17.0736 954.85 20.9736C958.15 24.7736 960.8 29.8236 962.8 36.1236C964.8 42.4236 965.8 50.0736 965.8 59.0736C965.8 68.0736 964.3 76.1736 961.3 83.3736C958.4 90.4736 954.4 95.9236 949.3 99.7236C939.4 107.124 927.45 110.824 913.45 110.824C908.55 110.824 903.4 110.624 898 110.224H890.5V5.37362H902.5ZM902.95 109.024C905.05 109.224 907.7 109.324 910.9 109.324C914.1 109.324 916.5 109.274 918.1 109.174C919.7 109.074 921.9 108.674 924.7 107.974C927.5 107.174 930.1 106.124 932.5 104.824C934.9 103.524 937.4 101.624 940 99.1236C942.7 96.5236 945 93.4736 946.9 89.9736C951.2 81.7736 953.35 71.0736 953.35 57.8736C953.35 48.4736 952.2 40.3736 949.9 33.5736C947.6 26.6736 944.95 21.5736 941.95 18.2736C939.05 14.9736 935.5 12.3736 931.3 10.4736C927.1 8.47363 923.75 7.32363 921.25 7.02363C918.75 6.72363 915.85 6.57363 912.55 6.57363C909.25 6.57363 906.05 6.72363 902.95 7.02363V109.024ZM1072.05 5.22363V6.72362H1024.8V51.7236H1068.6V53.2236H1024.8V108.724H1075.35V110.224H1012.35V5.22363H1072.05ZM1176.5 11.5236C1167.4 8.02363 1158.8 6.27363 1150.7 6.27363C1142.7 6.27363 1136.45 7.97363 1131.95 11.3736C1127.45 14.7736 1125.2 19.4736 1125.2 25.4736C1125.2 32.7736 1129 38.4236 1136.6 42.4236C1140 44.1236 1143.7 45.7236 1147.7 47.2236C1151.8 48.6236 1155.9 50.2236 1160 52.0236C1164.1 53.8236 1167.85 55.8736 1171.25 58.1736C1174.65 60.4736 1177.4 63.6736 1179.5 67.7736C1181.6 71.7736 1182.65 76.9236 1182.65 83.2236C1182.65 89.4236 1180.9 94.7236 1177.4 99.1236C1173.9 103.524 1169.65 106.524 1164.65 108.124C1159.75 109.624 1154 110.374 1147.4 110.374C1135.1 110.374 1124.6 107.324 1115.9 101.224L1116.65 100.024C1119.95 102.624 1124.2 104.774 1129.4 106.474C1134.7 108.074 1140.1 108.874 1145.6 108.874C1153.7 108.874 1160.6 107.024 1166.3 103.324C1172.1 99.5236 1175 93.9736 1175 86.6736C1175 78.6736 1171.2 72.4236 1163.6 67.9236C1160.2 65.9236 1156.45 64.0736 1152.35 62.3736C1148.35 60.6736 1144.3 58.9236 1140.2 57.1236C1136.1 55.2236 1132.35 53.1236 1128.95 50.8236C1121.35 45.8236 1117.55 38.7236 1117.55 29.5236C1117.55 22.2236 1120 16.3236 1124.9 11.8236C1129.8 7.22363 1137.15 4.92363 1146.95 4.92363C1156.85 4.92363 1166.9 6.62363 1177.1 10.0236L1176.5 11.5236ZM1228.35 6.72362V5.22363H1255.05V6.72362H1247.7V108.724H1255.05V110.224H1228.35V108.724H1235.25V6.72362H1228.35ZM1353.99 110.824C1335.29 110.824 1321.44 105.524 1312.44 94.9236C1309.24 91.1236 1306.64 86.0736 1304.64 79.7736C1302.64 73.4736 1301.64 65.8236 1301.64 56.8236C1301.64 47.8236 1303.09 39.7736 1305.99 32.6736C1308.99 25.4736 1313.04 19.9236 1318.14 16.0236C1328.04 8.72363 1339.99 5.07363 1353.99 5.07363C1358.49 5.07363 1362.89 5.42363 1367.19 6.12363C1371.49 6.72363 1374.69 7.37363 1376.79 8.07362L1379.94 9.12363L1379.49 10.6236C1371.69 7.92363 1363.19 6.57363 1353.99 6.57363C1343.39 6.57363 1334.54 10.0236 1327.44 16.9236C1322.04 22.0236 1318.24 29.5236 1316.04 39.4236C1314.74 45.0236 1314.09 51.8736 1314.09 59.9736C1314.09 68.0736 1315.24 75.5736 1317.54 82.4736C1319.84 89.2736 1322.44 94.3236 1325.34 97.6236C1328.34 100.924 1331.94 103.574 1336.14 105.574C1340.34 107.474 1343.69 108.574 1346.19 108.874C1348.69 109.174 1351.64 109.324 1355.04 109.324C1358.54 109.324 1363.19 108.924 1368.99 108.124V77.2236H1350.84V75.7236H1387.89V77.2236H1381.44V106.774C1373.84 109.474 1364.69 110.824 1353.99 110.824ZM1433.25 110.224H1431.3V5.22363H1436.4L1498.8 102.274V5.22363H1500.75V110.224H1489.8L1433.25 23.2236V110.224Z" fill="white"/>
<path fill-rule="evenodd" clip-rule="evenodd" d="M1648 118.724C1647.88 86.1789 1621.51 59.833 1589 59.833C1621.58 59.833 1648 33.3685 1648 0.723633C1648.12 33.2684 1674.49 59.6143 1707 59.6143C1674.41 59.6143 1648 86.0788 1648 118.724Z" fill="#4F4F4F"/>
<path d="M1837.65 5.22363H1839.6V65.2236C1839.6 80.9236 1836.5 92.4736 1830.3 99.8736C1824.1 107.174 1816 110.824 1806 110.824C1799.7 110.824 1794.35 110.274 1789.95 109.174C1785.55 107.974 1781.4 105.824 1777.5 102.724C1769.5 96.5236 1765.5 84.0236 1765.5 65.2236V5.22363H1777.95V65.0736C1777.95 83.2736 1780.7 95.4236 1786.2 101.524C1789 104.524 1791.9 106.574 1794.9 107.674C1798 108.774 1801.7 109.324 1806 109.324C1815.6 109.324 1823.25 105.824 1828.95 98.8236C1834.75 91.7236 1837.65 80.4736 1837.65 65.0736V5.22363ZM1888.34 110.224H1886.39L1913.54 56.5236L1883.84 5.22363H1896.44L1922.24 49.6236L1944.74 5.22363H1946.54L1923.29 51.4236L1957.49 110.224H1944.89L1914.59 58.1736L1888.34 110.224Z" fill="white"/>
</svg>
