<svg width="72" height="46" viewBox="0 0 72 46" fill="none" xmlns="http://www.w3.org/2000/svg">
<path d="M71.2003 18.4571C63.0734 23.1467 52.2769 23.2522 42.7134 23.8239C31.0797 24.5201 19.4162 24.9517 7.77097 25.5593C6.29188 25.6359 5.3155 23.6487 6.43973 22.8129C10.6657 19.674 14.8916 16.5351 19.1176 13.3962C19.6932 14.2699 20.2689 15.1435 20.8445 16.0172C14.6815 17.6007 9.11896 20.2658 4.41927 24.1028C4.28414 23.312 4.1537 22.5224 4.01731 21.7362C9.59303 24.503 15.0167 27.4807 20.303 30.7083C22.2312 31.884 20.5378 34.5997 18.5981 33.4109C13.3284 30.1777 7.93548 27.1227 2.4165 24.2755C1.50173 23.804 1.24298 22.5172 2.01454 21.9089C7.22906 17.8023 13.1131 14.8008 19.8497 13.0289C21.4087 12.6166 22.855 14.6894 21.5767 15.6499C17.3751 18.8104 13.177 21.9769 8.97541 25.1375C8.53124 24.2236 8.08833 23.305 7.64417 22.3911C18.359 22.0272 29.0729 21.6481 39.7745 21.1649C49.9371 20.7034 61.0052 20.8418 70.2361 17.0064C71.2888 16.569 72.1749 17.8982 71.2003 18.4571Z" fill="white"/>
</svg>
