<svg width="73" height="46" viewBox="0 0 73 46" fill="none" xmlns="http://www.w3.org/2000/svg">
<path d="M1.41741 18.4571C9.54433 23.1467 20.3408 23.2522 29.9043 23.8239C41.538 24.5201 53.2015 24.9517 64.8467 25.5593C66.3258 25.6359 67.3022 23.6487 66.178 22.8129C61.952 19.674 57.7261 16.5351 53.5002 13.3962C52.9245 14.2699 52.3488 15.1435 51.7732 16.0172C57.9362 17.6007 63.4988 20.2658 68.1984 24.1028C68.3336 23.312 68.464 22.5224 68.6004 21.7362C63.0247 24.503 57.601 27.4807 52.3147 30.7083C50.3866 31.884 52.0799 34.5997 54.0196 33.4109C59.2893 30.1777 64.6822 27.1227 70.2012 24.2755C71.116 23.804 71.3747 22.5172 70.6032 21.9089C65.3887 17.8023 59.5046 14.8008 52.768 13.0289C51.209 12.6166 49.7627 14.6894 51.041 15.6499C55.2426 18.8104 59.4407 21.9769 63.6423 25.1375C64.0865 24.2236 64.5294 23.305 64.9735 22.3911C54.2587 22.0272 43.5448 21.6481 32.8433 21.1649C22.6806 20.7034 11.6125 20.8418 2.38164 17.0064C1.32896 16.569 0.442806 17.8982 1.41741 18.4571Z" fill="white"/>
</svg>
