<svg width="159" height="35" viewBox="0 0 159 35" fill="none" xmlns="http://www.w3.org/2000/svg">
<path d="M34.5838 34.2871L51.5838 17.2871L34.5838 0.287079L17.5837 17.2871L34.5838 34.2871Z" fill="white"/>
<path d="M17.5841 34.2871L34.5842 17.2871L17.5841 0.287079L0.584107 17.2871L17.5841 34.2871Z" fill="white"/>
<path d="M89.8735 24.3787H80.1389V22.9133L82.9913 21.2123L81.395 17.3133H73.309L71.8698 20.8198L75.8735 22.6778L75.0361 24.3787H66.5838V22.9133L69.41 20.7937L76.109 4.64786L80.6361 3.31328L88.0679 21.3432L90.7371 22.6778L89.8735 24.3787ZM77.3913 7.44786L74.1464 15.2983H80.5838L77.3913 7.44786Z" fill="white"/>
<path d="M100.367 13.7282C99.7393 13.7282 99.1113 14.0074 98.4833 14.5656V21.631L102.461 22.6778L101.623 24.3787H91.7057V22.9133L94.0347 20.9507V15.0105L91.7057 13.5451V12.0796L97.1487 9.77683L98.1431 12.6815L100.524 10.2217C100.891 10.0821 101.318 10.0123 101.807 10.0123C102.714 10.0123 103.49 10.2217 104.136 10.6404C104.799 11.0591 105.261 11.6348 105.523 12.3675L103.01 15.5077H101.362C101.344 14.8796 101.257 14.4348 101.1 14.1731C100.943 13.894 100.699 13.7544 100.367 13.7544V13.7282Z" fill="white"/>
<path d="M115.423 24.431C114.83 24.5706 114.123 24.6404 113.303 24.6404C111.629 24.6404 110.399 24.2653 109.614 23.5151C108.846 22.7475 108.462 21.57 108.462 19.9824V12.7862H105.636V11.3993L111.262 5.2759H112.911V11.0591H117.621V12.7862H112.911V19.7993C112.911 21.003 113.591 21.6049 114.952 21.6049C115.301 21.6049 115.641 21.5525 115.972 21.4479C116.321 21.3257 116.757 21.1251 117.281 20.846L118.066 22.3376L115.423 24.431Z" fill="white"/>
<path d="M128.904 24.3525H119.64V22.8871L122.1 20.8198V6.32262L119.195 5.48524L120.059 3.78431H129.323V5.24973L126.837 7.34318V21.8404L129.741 22.6516L128.904 24.3525Z" fill="white"/>
<path d="M158.575 29.3507C155.277 30.6416 153.018 31.2871 151.797 31.2871C151.204 31.2871 150.279 30.6416 149.023 29.3507C147.784 28.0771 146.345 26.4722 144.705 24.5357C143.816 24.7799 142.978 24.9021 142.193 24.9021C140.187 24.9021 138.416 24.4659 136.881 23.5937C135.363 22.7039 134.177 21.474 133.322 19.9039C132.485 18.3338 132.066 16.5544 132.066 14.5656C132.066 12.5245 132.694 10.6404 133.95 8.91328C135.224 7.16873 136.803 5.79926 138.687 4.80487C140.571 3.79303 142.359 3.28711 144.051 3.28711C146.057 3.28711 147.828 3.73197 149.363 4.62169C150.898 5.51141 152.085 6.74132 152.922 8.31141C153.76 9.8815 154.178 11.6609 154.178 13.6497C154.178 15.6734 153.559 17.5401 152.32 19.2497C151.082 20.9594 149.52 22.3289 147.636 23.3581C149.154 24.4572 150.558 25.4254 151.849 26.2628C153.14 27.1002 153.917 27.5189 154.178 27.5189H157.711L158.575 29.3507ZM137.221 13.3095C137.221 14.8796 137.457 16.3189 137.928 17.6273C138.416 18.9183 139.14 19.9563 140.1 20.7413C141.077 21.5089 142.28 21.8927 143.711 21.8927C144.67 21.8927 145.551 21.5874 146.354 20.9768C147.174 20.3662 147.819 19.5289 148.29 18.4647C148.761 17.4005 148.997 16.2055 148.997 14.8796C148.997 13.2921 148.761 11.8528 148.29 10.5619C147.819 9.27091 147.095 8.24163 146.118 7.47403C145.159 6.68898 143.964 6.29646 142.533 6.29646C141.556 6.29646 140.658 6.60175 139.838 7.21234C139.036 7.82294 138.399 8.66032 137.928 9.72449C137.457 10.7887 137.221 11.9837 137.221 13.3095Z" fill="white"/>
</svg>
