<svg width="100" height="57" viewBox="0 0 100 57" fill="none" xmlns="http://www.w3.org/2000/svg">
<path d="M58.9828 53.0401C53.5707 50.1154 45.9215 50.0276 40.4422 52.8248C36.6574 54.7571 32.373 55.8466 27.835 55.8466C12.4622 55.8466 0 43.3448 0 27.9233C0 12.5015 12.4622 0 27.835 0C32.6043 0 37.0934 1.20327 41.0172 3.32367C46.4293 6.24839 54.0785 6.33605 59.5574 3.53878C63.3426 1.60648 67.627 0.517107 72.1648 0.517107C87.5379 0.517107 100 13.0188 100 28.4403C100 43.8622 87.5379 56.3636 72.1648 56.3636C67.3957 56.3636 62.9066 55.1606 58.9828 53.0401Z" fill="#219653"/>
</svg>
